G04 #@! TF.GenerationSoftware,KiCad,Pcbnew,7.0.8*
G04 #@! TF.CreationDate,2024-01-23T22:35:07+01:00*
G04 #@! TF.ProjectId,internet-radio-speaker,696e7465-726e-4657-942d-726164696f2d,rev?*
G04 #@! TF.SameCoordinates,Original*
G04 #@! TF.FileFunction,Copper,L1,Top*
G04 #@! TF.FilePolarity,Positive*
%FSLAX46Y46*%
G04 Gerber Fmt 4.6, Leading zero omitted, Abs format (unit mm)*
G04 Created by KiCad (PCBNEW 7.0.8) date 2024-01-23 22:35:07*
%MOMM*%
%LPD*%
G01*
G04 APERTURE LIST*
G04 Aperture macros list*
%AMRoundRect*
0 Rectangle with rounded corners*
0 $1 Rounding radius*
0 $2 $3 $4 $5 $6 $7 $8 $9 X,Y pos of 4 corners*
0 Add a 4 corners polygon primitive as box body*
4,1,4,$2,$3,$4,$5,$6,$7,$8,$9,$2,$3,0*
0 Add four circle primitives for the rounded corners*
1,1,$1+$1,$2,$3*
1,1,$1+$1,$4,$5*
1,1,$1+$1,$6,$7*
1,1,$1+$1,$8,$9*
0 Add four rect primitives between the rounded corners*
20,1,$1+$1,$2,$3,$4,$5,0*
20,1,$1+$1,$4,$5,$6,$7,0*
20,1,$1+$1,$6,$7,$8,$9,0*
20,1,$1+$1,$8,$9,$2,$3,0*%
%AMRotRect*
0 Rectangle, with rotation*
0 The origin of the aperture is its center*
0 $1 length*
0 $2 width*
0 $3 Rotation angle, in degrees counterclockwise*
0 Add horizontal line*
21,1,$1,$2,0,0,$3*%
%AMFreePoly0*
4,1,21,-0.125000,1.200000,0.125000,1.200000,0.125000,1.700000,0.375000,1.700000,0.375000,1.200000,0.825000,1.200000,0.825000,-1.200000,0.375000,-1.200000,0.375000,-1.700000,0.125000,-1.700000,0.125000,-1.200000,-0.125000,-1.200000,-0.125000,-1.700000,-0.375000,-1.700000,-0.375000,-1.200000,-0.825000,-1.200000,-0.825000,1.200000,-0.375000,1.200000,-0.375000,1.700000,-0.125000,1.700000,
-0.125000,1.200000,-0.125000,1.200000,$1*%
G04 Aperture macros list end*
G04 #@! TA.AperFunction,SMDPad,CuDef*
%ADD10R,1.200000X0.650000*%
G04 #@! TD*
G04 #@! TA.AperFunction,ComponentPad*
%ADD11R,3.000000X3.000000*%
G04 #@! TD*
G04 #@! TA.AperFunction,ComponentPad*
%ADD12C,3.000000*%
G04 #@! TD*
G04 #@! TA.AperFunction,SMDPad,CuDef*
%ADD13RoundRect,0.135000X-0.135000X-0.185000X0.135000X-0.185000X0.135000X0.185000X-0.135000X0.185000X0*%
G04 #@! TD*
G04 #@! TA.AperFunction,SMDPad,CuDef*
%ADD14RoundRect,0.135000X0.185000X-0.135000X0.185000X0.135000X-0.185000X0.135000X-0.185000X-0.135000X0*%
G04 #@! TD*
G04 #@! TA.AperFunction,SMDPad,CuDef*
%ADD15RoundRect,0.225000X-0.250000X0.225000X-0.250000X-0.225000X0.250000X-0.225000X0.250000X0.225000X0*%
G04 #@! TD*
G04 #@! TA.AperFunction,SMDPad,CuDef*
%ADD16RoundRect,0.140000X0.140000X0.170000X-0.140000X0.170000X-0.140000X-0.170000X0.140000X-0.170000X0*%
G04 #@! TD*
G04 #@! TA.AperFunction,SMDPad,CuDef*
%ADD17RoundRect,0.135000X0.135000X0.185000X-0.135000X0.185000X-0.135000X-0.185000X0.135000X-0.185000X0*%
G04 #@! TD*
G04 #@! TA.AperFunction,SMDPad,CuDef*
%ADD18RoundRect,0.140000X0.170000X-0.140000X0.170000X0.140000X-0.170000X0.140000X-0.170000X-0.140000X0*%
G04 #@! TD*
G04 #@! TA.AperFunction,SMDPad,CuDef*
%ADD19RoundRect,0.140000X-0.140000X-0.170000X0.140000X-0.170000X0.140000X0.170000X-0.140000X0.170000X0*%
G04 #@! TD*
G04 #@! TA.AperFunction,SMDPad,CuDef*
%ADD20RoundRect,0.150000X-0.425000X0.150000X-0.425000X-0.150000X0.425000X-0.150000X0.425000X0.150000X0*%
G04 #@! TD*
G04 #@! TA.AperFunction,SMDPad,CuDef*
%ADD21RoundRect,0.075000X-0.500000X0.075000X-0.500000X-0.075000X0.500000X-0.075000X0.500000X0.075000X0*%
G04 #@! TD*
G04 #@! TA.AperFunction,ComponentPad*
%ADD22O,2.100000X1.000000*%
G04 #@! TD*
G04 #@! TA.AperFunction,ComponentPad*
%ADD23O,1.800000X1.000000*%
G04 #@! TD*
G04 #@! TA.AperFunction,SMDPad,CuDef*
%ADD24RoundRect,0.135000X0.035355X-0.226274X0.226274X-0.035355X-0.035355X0.226274X-0.226274X0.035355X0*%
G04 #@! TD*
G04 #@! TA.AperFunction,SMDPad,CuDef*
%ADD25R,0.600000X0.240000*%
G04 #@! TD*
G04 #@! TA.AperFunction,ComponentPad*
%ADD26C,0.500000*%
G04 #@! TD*
G04 #@! TA.AperFunction,SMDPad,CuDef*
%ADD27FreePoly0,180.000000*%
G04 #@! TD*
G04 #@! TA.AperFunction,SMDPad,CuDef*
%ADD28RotRect,1.400000X1.200000X225.000000*%
G04 #@! TD*
G04 #@! TA.AperFunction,SMDPad,CuDef*
%ADD29RoundRect,0.062500X-0.062500X0.375000X-0.062500X-0.375000X0.062500X-0.375000X0.062500X0.375000X0*%
G04 #@! TD*
G04 #@! TA.AperFunction,SMDPad,CuDef*
%ADD30RoundRect,0.062500X-0.375000X0.062500X-0.375000X-0.062500X0.375000X-0.062500X0.375000X0.062500X0*%
G04 #@! TD*
G04 #@! TA.AperFunction,SMDPad,CuDef*
%ADD31R,3.100000X3.100000*%
G04 #@! TD*
G04 #@! TA.AperFunction,SMDPad,CuDef*
%ADD32RoundRect,0.135000X-0.185000X0.135000X-0.185000X-0.135000X0.185000X-0.135000X0.185000X0.135000X0*%
G04 #@! TD*
G04 #@! TA.AperFunction,SMDPad,CuDef*
%ADD33RoundRect,0.225000X-0.225000X-0.250000X0.225000X-0.250000X0.225000X0.250000X-0.225000X0.250000X0*%
G04 #@! TD*
G04 #@! TA.AperFunction,SMDPad,CuDef*
%ADD34R,1.800000X1.100000*%
G04 #@! TD*
G04 #@! TA.AperFunction,SMDPad,CuDef*
%ADD35RoundRect,0.250000X-0.850000X0.375000X-0.850000X-0.375000X0.850000X-0.375000X0.850000X0.375000X0*%
G04 #@! TD*
G04 #@! TA.AperFunction,SMDPad,CuDef*
%ADD36RoundRect,0.150000X0.650000X0.150000X-0.650000X0.150000X-0.650000X-0.150000X0.650000X-0.150000X0*%
G04 #@! TD*
G04 #@! TA.AperFunction,SMDPad,CuDef*
%ADD37RoundRect,0.147500X-0.172500X0.147500X-0.172500X-0.147500X0.172500X-0.147500X0.172500X0.147500X0*%
G04 #@! TD*
G04 #@! TA.AperFunction,SMDPad,CuDef*
%ADD38RoundRect,0.140000X-0.219203X-0.021213X-0.021213X-0.219203X0.219203X0.021213X0.021213X0.219203X0*%
G04 #@! TD*
G04 #@! TA.AperFunction,SMDPad,CuDef*
%ADD39R,0.600000X0.900000*%
G04 #@! TD*
G04 #@! TA.AperFunction,ComponentPad*
%ADD40RoundRect,0.250001X-0.799999X-0.799999X0.799999X-0.799999X0.799999X0.799999X-0.799999X0.799999X0*%
G04 #@! TD*
G04 #@! TA.AperFunction,ComponentPad*
%ADD41C,2.100000*%
G04 #@! TD*
G04 #@! TA.AperFunction,SMDPad,CuDef*
%ADD42RoundRect,0.140000X0.021213X-0.219203X0.219203X-0.021213X-0.021213X0.219203X-0.219203X0.021213X0*%
G04 #@! TD*
G04 #@! TA.AperFunction,SMDPad,CuDef*
%ADD43RoundRect,0.218750X-0.256250X0.218750X-0.256250X-0.218750X0.256250X-0.218750X0.256250X0.218750X0*%
G04 #@! TD*
G04 #@! TA.AperFunction,SMDPad,CuDef*
%ADD44RoundRect,0.225000X0.225000X0.250000X-0.225000X0.250000X-0.225000X-0.250000X0.225000X-0.250000X0*%
G04 #@! TD*
G04 #@! TA.AperFunction,SMDPad,CuDef*
%ADD45RoundRect,0.218750X-0.218750X-0.256250X0.218750X-0.256250X0.218750X0.256250X-0.218750X0.256250X0*%
G04 #@! TD*
G04 #@! TA.AperFunction,SMDPad,CuDef*
%ADD46RoundRect,0.250000X0.650000X-1.000000X0.650000X1.000000X-0.650000X1.000000X-0.650000X-1.000000X0*%
G04 #@! TD*
G04 #@! TA.AperFunction,SMDPad,CuDef*
%ADD47RoundRect,0.150000X-0.512500X-0.150000X0.512500X-0.150000X0.512500X0.150000X-0.512500X0.150000X0*%
G04 #@! TD*
G04 #@! TA.AperFunction,SMDPad,CuDef*
%ADD48RoundRect,0.218750X0.381250X-0.218750X0.381250X0.218750X-0.381250X0.218750X-0.381250X-0.218750X0*%
G04 #@! TD*
G04 #@! TA.AperFunction,ComponentPad*
%ADD49C,1.800000*%
G04 #@! TD*
G04 #@! TA.AperFunction,ComponentPad*
%ADD50RoundRect,0.450000X0.450000X-0.450000X0.450000X0.450000X-0.450000X0.450000X-0.450000X-0.450000X0*%
G04 #@! TD*
G04 #@! TA.AperFunction,SMDPad,CuDef*
%ADD51RoundRect,0.218750X0.218750X0.256250X-0.218750X0.256250X-0.218750X-0.256250X0.218750X-0.256250X0*%
G04 #@! TD*
G04 #@! TA.AperFunction,SMDPad,CuDef*
%ADD52RoundRect,0.140000X-0.170000X0.140000X-0.170000X-0.140000X0.170000X-0.140000X0.170000X0.140000X0*%
G04 #@! TD*
G04 #@! TA.AperFunction,SMDPad,CuDef*
%ADD53RoundRect,0.062500X0.350000X0.062500X-0.350000X0.062500X-0.350000X-0.062500X0.350000X-0.062500X0*%
G04 #@! TD*
G04 #@! TA.AperFunction,SMDPad,CuDef*
%ADD54RoundRect,0.062500X0.062500X0.350000X-0.062500X0.350000X-0.062500X-0.350000X0.062500X-0.350000X0*%
G04 #@! TD*
G04 #@! TA.AperFunction,SMDPad,CuDef*
%ADD55R,1.230000X1.230000*%
G04 #@! TD*
G04 #@! TA.AperFunction,ComponentPad*
%ADD56C,2.500000*%
G04 #@! TD*
G04 #@! TA.AperFunction,ComponentPad*
%ADD57RoundRect,0.200100X-0.949900X0.949900X-0.949900X-0.949900X0.949900X-0.949900X0.949900X0.949900X0*%
G04 #@! TD*
G04 #@! TA.AperFunction,SMDPad,CuDef*
%ADD58RoundRect,0.147500X0.017678X-0.226274X0.226274X-0.017678X-0.017678X0.226274X-0.226274X0.017678X0*%
G04 #@! TD*
G04 #@! TA.AperFunction,ViaPad*
%ADD59C,0.600000*%
G04 #@! TD*
G04 #@! TA.AperFunction,ViaPad*
%ADD60C,0.850000*%
G04 #@! TD*
G04 #@! TA.AperFunction,Conductor*
%ADD61C,0.200000*%
G04 #@! TD*
G04 #@! TA.AperFunction,Conductor*
%ADD62C,0.300000*%
G04 #@! TD*
G04 #@! TA.AperFunction,Conductor*
%ADD63C,0.500000*%
G04 #@! TD*
G04 #@! TA.AperFunction,Conductor*
%ADD64C,0.250000*%
G04 #@! TD*
G04 #@! TA.AperFunction,Conductor*
%ADD65C,0.286004*%
G04 #@! TD*
G04 #@! TA.AperFunction,Conductor*
%ADD66C,0.349300*%
G04 #@! TD*
G04 #@! TA.AperFunction,Conductor*
%ADD67C,0.156500*%
G04 #@! TD*
G04 APERTURE END LIST*
D10*
X135425000Y-96285000D03*
X135425000Y-98205000D03*
X137525000Y-97245000D03*
D11*
X112550000Y-118485000D03*
D12*
X112550000Y-113405000D03*
D11*
X112550000Y-129610000D03*
D12*
X112550000Y-124530000D03*
D13*
X137165000Y-105945000D03*
X138185000Y-105945000D03*
X145540000Y-109345000D03*
X146560000Y-109345000D03*
D14*
X141550000Y-114115000D03*
X141550000Y-113095000D03*
D13*
X112890000Y-107000000D03*
X113910000Y-107000000D03*
D15*
X126425000Y-111045000D03*
X126425000Y-112595000D03*
D16*
X140435000Y-115120000D03*
X139475000Y-115120000D03*
D17*
X137435000Y-102845000D03*
X136415000Y-102845000D03*
D18*
X120950000Y-113165000D03*
X120950000Y-112205000D03*
D13*
X139215000Y-105945000D03*
X140235000Y-105945000D03*
D19*
X145720000Y-116100000D03*
X146680000Y-116100000D03*
D20*
X115380000Y-97845000D03*
X115380000Y-98645000D03*
D21*
X115380000Y-99795000D03*
X115380000Y-100795000D03*
X115380000Y-101295000D03*
X115380000Y-102295000D03*
D20*
X115380000Y-103445000D03*
X115380000Y-104245000D03*
X115380000Y-104245000D03*
X115380000Y-103445000D03*
D21*
X115380000Y-102795000D03*
X115380000Y-101795000D03*
X115380000Y-100295000D03*
X115380000Y-99295000D03*
D20*
X115380000Y-98645000D03*
X115380000Y-97845000D03*
D22*
X114805000Y-96725000D03*
D23*
X110625000Y-96725000D03*
D22*
X114805000Y-105365000D03*
D23*
X110625000Y-105365000D03*
D14*
X135225000Y-94765000D03*
X135225000Y-93745000D03*
D15*
X126425000Y-121020000D03*
X126425000Y-122570000D03*
D24*
X150764965Y-117470659D03*
X151486213Y-116749411D03*
D25*
X141365000Y-104315000D03*
X141365000Y-103815000D03*
X141365000Y-103315000D03*
X141365000Y-102815000D03*
X141365000Y-102315000D03*
X138565000Y-102315000D03*
X138565000Y-102815000D03*
X138565000Y-103315000D03*
X138565000Y-103815000D03*
X138565000Y-104315000D03*
D26*
X140540000Y-103315000D03*
X139965000Y-104265000D03*
D27*
X139965000Y-103315000D03*
D26*
X139965000Y-102365000D03*
X139390000Y-103315000D03*
D28*
X154377366Y-116000553D03*
X152821731Y-117556188D03*
X154023812Y-118758269D03*
X155579447Y-117202634D03*
D29*
X143675000Y-116360000D03*
X143175000Y-116360000D03*
X142675000Y-116360000D03*
X142175000Y-116360000D03*
X141675000Y-116360000D03*
X141175000Y-116360000D03*
X140675000Y-116360000D03*
X140175000Y-116360000D03*
D30*
X139487500Y-117047500D03*
X139487500Y-117547500D03*
X139487500Y-118047500D03*
X139487500Y-118547500D03*
X139487500Y-119047500D03*
X139487500Y-119547500D03*
X139487500Y-120047500D03*
X139487500Y-120547500D03*
D29*
X140175000Y-121235000D03*
X140675000Y-121235000D03*
X141175000Y-121235000D03*
X141675000Y-121235000D03*
X142175000Y-121235000D03*
X142675000Y-121235000D03*
X143175000Y-121235000D03*
X143675000Y-121235000D03*
D30*
X144362500Y-120547500D03*
X144362500Y-120047500D03*
X144362500Y-119547500D03*
X144362500Y-119047500D03*
X144362500Y-118547500D03*
X144362500Y-118047500D03*
X144362500Y-117547500D03*
X144362500Y-117047500D03*
D26*
X143225000Y-117497500D03*
X142358333Y-117497500D03*
X141491667Y-117497500D03*
X140625000Y-117497500D03*
X143225000Y-118364167D03*
X142358333Y-118364167D03*
X141491667Y-118364167D03*
X140625000Y-118364167D03*
D31*
X141925000Y-118797500D03*
D26*
X143225000Y-119230833D03*
X142358333Y-119230833D03*
X141491667Y-119230833D03*
X140625000Y-119230833D03*
X143225000Y-120097500D03*
X142358333Y-120097500D03*
X141491667Y-120097500D03*
X140625000Y-120097500D03*
D32*
X124775000Y-123710000D03*
X124775000Y-122690000D03*
D13*
X127835000Y-91145000D03*
X128855000Y-91145000D03*
D33*
X135450000Y-99895000D03*
X137000000Y-99895000D03*
D34*
X130600000Y-124450000D03*
X136800000Y-124450000D03*
X130600000Y-128150000D03*
X136800000Y-128150000D03*
D33*
X141550000Y-106195000D03*
X143100000Y-106195000D03*
X143225000Y-110745000D03*
X144775000Y-110745000D03*
D17*
X136510000Y-120300000D03*
X135490000Y-120300000D03*
D35*
X130225000Y-106945000D03*
X130225000Y-109095000D03*
D13*
X129290000Y-121200000D03*
X130310000Y-121200000D03*
D36*
X141025000Y-127950000D03*
X141025000Y-126680000D03*
X141025000Y-125410000D03*
X141025000Y-124140000D03*
X148225000Y-124140000D03*
X148225000Y-125410000D03*
X148225000Y-126680000D03*
X148225000Y-127950000D03*
D37*
X142675000Y-113110000D03*
X142675000Y-114080000D03*
D16*
X141555000Y-112045000D03*
X140595000Y-112045000D03*
D33*
X139350000Y-96245000D03*
X140900000Y-96245000D03*
D38*
X147413084Y-114213084D03*
X148091906Y-114891906D03*
D16*
X136000000Y-118300000D03*
X135040000Y-118300000D03*
D18*
X120950000Y-121980000D03*
X120950000Y-121020000D03*
D39*
X134475000Y-106620000D03*
X133525000Y-106620000D03*
X132575000Y-106620000D03*
X132575000Y-109420000D03*
X134475000Y-109420000D03*
D40*
X139350000Y-93500000D03*
D41*
X143950000Y-93500000D03*
D16*
X137405000Y-103945000D03*
X136445000Y-103945000D03*
D42*
X152261178Y-116018822D03*
X152940000Y-115340000D03*
D43*
X146550000Y-110707500D03*
X146550000Y-112282500D03*
D19*
X148470000Y-109350000D03*
X149430000Y-109350000D03*
D13*
X133584223Y-91236452D03*
X134604223Y-91236452D03*
D44*
X141350000Y-100495000D03*
X139800000Y-100495000D03*
D45*
X131612500Y-120900000D03*
X133187500Y-120900000D03*
D44*
X141550000Y-110745000D03*
X140000000Y-110745000D03*
D33*
X141550000Y-107845000D03*
X143100000Y-107845000D03*
X132575000Y-111045000D03*
X134125000Y-111045000D03*
D19*
X145720000Y-117245000D03*
X146680000Y-117245000D03*
D38*
X152360589Y-119460589D03*
X153039411Y-120139411D03*
D46*
X132625000Y-102545000D03*
X132625000Y-98545000D03*
D44*
X133575000Y-96126632D03*
X132025000Y-96126632D03*
D33*
X132400000Y-104995000D03*
X133950000Y-104995000D03*
D47*
X123537500Y-100600000D03*
X123537500Y-101550000D03*
X123537500Y-102500000D03*
X121262500Y-102500000D03*
X121262500Y-101550000D03*
X121262500Y-100600000D03*
D18*
X122049999Y-121980000D03*
X122049999Y-121020000D03*
D14*
X135975000Y-109705000D03*
X135975000Y-108685000D03*
D48*
X143225000Y-104357500D03*
X143225000Y-102232500D03*
D13*
X112690000Y-95000000D03*
X113710000Y-95000000D03*
D49*
X152180000Y-101274700D03*
X157180000Y-101274700D03*
X152180000Y-95024700D03*
X154680000Y-95024700D03*
D50*
X157180000Y-95024700D03*
D51*
X127837500Y-92545000D03*
X129412500Y-92545000D03*
D52*
X139375000Y-127965000D03*
X139375000Y-128925000D03*
D38*
X149908094Y-111784871D03*
X150586916Y-112463693D03*
D53*
X123412500Y-125475000D03*
X123412500Y-124975000D03*
X123412500Y-124475000D03*
X123412500Y-123975000D03*
D54*
X122725000Y-123287500D03*
X122225000Y-123287500D03*
X121725000Y-123287500D03*
X121225000Y-123287500D03*
D53*
X120537500Y-123975000D03*
X120537500Y-124475000D03*
X120537500Y-124975000D03*
X120537500Y-125475000D03*
D54*
X121225000Y-126162500D03*
X121725000Y-126162500D03*
X122225000Y-126162500D03*
X122725000Y-126162500D03*
D26*
X122340000Y-125090000D03*
X122340000Y-124360000D03*
D55*
X121975000Y-124725000D03*
D26*
X121610000Y-125090000D03*
X121610000Y-124360000D03*
D14*
X135300000Y-104310000D03*
X135300000Y-103290000D03*
D47*
X133600000Y-92595000D03*
X133600000Y-94495000D03*
X131325000Y-94495000D03*
X131325000Y-93545000D03*
X131325000Y-92595000D03*
D32*
X140425000Y-113085000D03*
X140425000Y-114105000D03*
D16*
X139980000Y-122395000D03*
X139020000Y-122395000D03*
D18*
X143825000Y-114075000D03*
X143825000Y-113115000D03*
D53*
X123412500Y-116660000D03*
X123412500Y-116160000D03*
X123412500Y-115660000D03*
X123412500Y-115160000D03*
D54*
X122725000Y-114472500D03*
X122225000Y-114472500D03*
X121725000Y-114472500D03*
X121225000Y-114472500D03*
D53*
X120537500Y-115160000D03*
X120537500Y-115660000D03*
X120537500Y-116160000D03*
X120537500Y-116660000D03*
D54*
X121225000Y-117347500D03*
X121725000Y-117347500D03*
X122225000Y-117347500D03*
X122725000Y-117347500D03*
D26*
X122340000Y-116275000D03*
X122340000Y-115545000D03*
D55*
X121975000Y-115910000D03*
D26*
X121610000Y-116275000D03*
X121610000Y-115545000D03*
D18*
X138300000Y-116075000D03*
X138300000Y-115115000D03*
X122025000Y-113160000D03*
X122025000Y-112200000D03*
D56*
X160960000Y-115180000D03*
X166040000Y-115180000D03*
X160960000Y-110100000D03*
X166040000Y-110100000D03*
D57*
X163500000Y-112640000D03*
D58*
X148365147Y-113327818D03*
X149051041Y-112641924D03*
D59*
X110800000Y-109000000D03*
X137800000Y-130600000D03*
D60*
X130700000Y-96200000D03*
D59*
X126600000Y-129200000D03*
X110800000Y-107600000D03*
X149400000Y-116600000D03*
X126600000Y-132000000D03*
X120200000Y-129200000D03*
X152000000Y-130600000D03*
X132000000Y-119400000D03*
X143400000Y-112000000D03*
D60*
X135400000Y-111600000D03*
D59*
X135500000Y-91200000D03*
X150400000Y-122200000D03*
X156800000Y-127800000D03*
X118600000Y-91600000D03*
X126800000Y-94400000D03*
X123600000Y-93000000D03*
X118600000Y-130600000D03*
X120200000Y-121400000D03*
X128200000Y-132000000D03*
X118600000Y-93000000D03*
X134200000Y-121800000D03*
X149050000Y-114250000D03*
X110600000Y-93000000D03*
X129400000Y-104200000D03*
X122000000Y-104800000D03*
D60*
X146325000Y-93500000D03*
D59*
X125200000Y-94400000D03*
X117000000Y-91600000D03*
X142600000Y-132000000D03*
D60*
X130600000Y-129400000D03*
D59*
X146450000Y-91250000D03*
X117200000Y-110400000D03*
X156800000Y-114600000D03*
X139400000Y-132000000D03*
X123600000Y-94400000D03*
D60*
X160350000Y-107650000D03*
D59*
X118600000Y-120000000D03*
X119100000Y-125400000D03*
X122000000Y-109000000D03*
X158400000Y-106200000D03*
D60*
X144700000Y-107400000D03*
D59*
X117000000Y-122800000D03*
X121800000Y-130600000D03*
X147400000Y-104000000D03*
X115400000Y-93000000D03*
X118600000Y-94400000D03*
D60*
X122000000Y-120000000D03*
D59*
X144600000Y-98800000D03*
X140850000Y-101500000D03*
D60*
X144700000Y-109700000D03*
X138800000Y-99600000D03*
D59*
X125200000Y-109000000D03*
X135799999Y-114200000D03*
X156800000Y-107800000D03*
X147900000Y-120600000D03*
X128200000Y-127800000D03*
X129400000Y-102800000D03*
X125000000Y-132000000D03*
X155200000Y-109400000D03*
X121800000Y-129200000D03*
X110600000Y-91600000D03*
X153600000Y-126400000D03*
X118600000Y-129200000D03*
X136200000Y-132000000D03*
X155200000Y-123600000D03*
X152000000Y-106200000D03*
X155200000Y-106200000D03*
X134300000Y-104000000D03*
X128600000Y-97200000D03*
X150400000Y-125000000D03*
X150400000Y-126400000D03*
X125000000Y-129200000D03*
X141000000Y-132000000D03*
D60*
X119100000Y-116700000D03*
D59*
X125200000Y-91600000D03*
X138300000Y-114100000D03*
X112200000Y-91600000D03*
X119800000Y-120000000D03*
X155200000Y-104400000D03*
X120170242Y-101553671D03*
X112200000Y-93000000D03*
X152000000Y-107800000D03*
X152000000Y-127800000D03*
X156800000Y-130600000D03*
D60*
X139500000Y-109600000D03*
D59*
X138800000Y-121600000D03*
X121800000Y-132000000D03*
X158400000Y-129200000D03*
X147800000Y-96000000D03*
X120400000Y-106200000D03*
X150400000Y-127800000D03*
X142600000Y-130600000D03*
X136200000Y-130600000D03*
X122000000Y-91600000D03*
D60*
X144700000Y-106200000D03*
D59*
X147700000Y-116100000D03*
X158400000Y-122200000D03*
X120400000Y-109000000D03*
D60*
X120900000Y-111100000D03*
D59*
X115600000Y-109000000D03*
X158400000Y-119000000D03*
D60*
X128700000Y-93700000D03*
D59*
X129400000Y-101400000D03*
X117000000Y-93000000D03*
D60*
X122100000Y-111100000D03*
D59*
X125200000Y-97200000D03*
X150400000Y-123600000D03*
X117200000Y-107600000D03*
D60*
X157200000Y-117700000D03*
D59*
X147400000Y-102600000D03*
X127300000Y-126300000D03*
X158400000Y-132000000D03*
X156800000Y-109400000D03*
X147800000Y-91800000D03*
X143000000Y-98800000D03*
X118800000Y-107600000D03*
X129800000Y-132000000D03*
X135200000Y-92800000D03*
X139200000Y-114100000D03*
D60*
X120900000Y-120000000D03*
D59*
X120400000Y-95800000D03*
X158400000Y-125000000D03*
X128800000Y-122400000D03*
D60*
X114300000Y-107900000D03*
D59*
X147400000Y-106400000D03*
X155200000Y-132000000D03*
D60*
X147900000Y-123100000D03*
D59*
X145200000Y-104000000D03*
X153600000Y-109400000D03*
D60*
X138100000Y-100400000D03*
D59*
X158400000Y-107800000D03*
X153600000Y-127800000D03*
X123600000Y-106200000D03*
X134400000Y-114200000D03*
D60*
X136800000Y-129400000D03*
D59*
X128200000Y-129200000D03*
X110600000Y-94400000D03*
X153600000Y-132000000D03*
X127600001Y-115300000D03*
X120400000Y-97200000D03*
X143000000Y-97400000D03*
X138000000Y-107400000D03*
D60*
X127375500Y-121800000D03*
D59*
X146000000Y-108400000D03*
X149100000Y-108400000D03*
X118600000Y-121400000D03*
X145800000Y-132000000D03*
X125200000Y-95800000D03*
X155200000Y-113000000D03*
X138000000Y-110200000D03*
X151800000Y-114400000D03*
X117200000Y-109000000D03*
X149000000Y-132000000D03*
X147400000Y-107800000D03*
D60*
X125100000Y-113000000D03*
D59*
X112400000Y-109000000D03*
X118600000Y-126400000D03*
X147800000Y-93200000D03*
X152000000Y-109400000D03*
X158400000Y-123600000D03*
X139000000Y-129600000D03*
X134600000Y-130600000D03*
X120200000Y-118600000D03*
X150400000Y-107800000D03*
X120200000Y-130600000D03*
X139400000Y-130600000D03*
X155200000Y-126400000D03*
X122400000Y-118500000D03*
X156800000Y-104400000D03*
X133000001Y-114200000D03*
X153600000Y-113000000D03*
D60*
X160200000Y-117600000D03*
D59*
X153600589Y-114679411D03*
X118800000Y-113200000D03*
X136725000Y-92825000D03*
X155200000Y-130600000D03*
X125200000Y-98550000D03*
X156800000Y-129200000D03*
X136300000Y-104700000D03*
X138000000Y-108800000D03*
X152000000Y-132000000D03*
X113800000Y-93000000D03*
X157200000Y-116100000D03*
X113800000Y-91600000D03*
X150400000Y-132000000D03*
X156800000Y-113000000D03*
D60*
X134000000Y-118100000D03*
D59*
X155200000Y-129200000D03*
X115600000Y-110400000D03*
X138350000Y-91200000D03*
X117200000Y-111800000D03*
X139600000Y-112000000D03*
X155200000Y-120600000D03*
X125200000Y-106200000D03*
D60*
X142300000Y-96200000D03*
D59*
X152000000Y-129200000D03*
X155200000Y-107800000D03*
X152000000Y-120600000D03*
X122000000Y-93000000D03*
X125200000Y-107600000D03*
X118600000Y-132000000D03*
X123400000Y-129200000D03*
X123400000Y-130600000D03*
X137800000Y-132000000D03*
X155200000Y-114600000D03*
X156800000Y-122200000D03*
X122000000Y-94400000D03*
X118600000Y-127800000D03*
X122000000Y-97200000D03*
X120200000Y-126400000D03*
X133000000Y-132000000D03*
X118600000Y-118600000D03*
X153600000Y-104400000D03*
X123600000Y-107600000D03*
X156800000Y-132000000D03*
X153600000Y-125000000D03*
X123600000Y-97200000D03*
X123600000Y-91600000D03*
X149000000Y-130600000D03*
D60*
X119000000Y-104800000D03*
D59*
X153600000Y-123600000D03*
X122000000Y-106200000D03*
X122000000Y-107600000D03*
X153600000Y-106200000D03*
X129000000Y-115300000D03*
X123400000Y-132000000D03*
X156800000Y-106200000D03*
X147700000Y-117200000D03*
X120200000Y-127800000D03*
X147400000Y-132000000D03*
X153800000Y-120900000D03*
X151152602Y-113100090D03*
X126800000Y-95800000D03*
X128200000Y-130600000D03*
X158400000Y-120600000D03*
X145800000Y-130600000D03*
X147800000Y-94600000D03*
X156800000Y-120600000D03*
X110800000Y-110400000D03*
X112400000Y-110400000D03*
X123600000Y-95800000D03*
X155200000Y-127800000D03*
X125000000Y-130600000D03*
D60*
X114200000Y-94100000D03*
X118900000Y-97500000D03*
X126300000Y-124000000D03*
D59*
X120200000Y-122800000D03*
X120400000Y-93000000D03*
X123600000Y-104800000D03*
X156800000Y-126400000D03*
X152000000Y-125000000D03*
X123600000Y-109000000D03*
X155200000Y-122200000D03*
X141000000Y-130600000D03*
X118600000Y-122800000D03*
X118800000Y-111800000D03*
X125200000Y-93000000D03*
X150600000Y-115500000D03*
X136725000Y-94425000D03*
D60*
X158700000Y-109600000D03*
D59*
X115400000Y-91600000D03*
X155200000Y-125000000D03*
X147400000Y-130600000D03*
X145200000Y-102600000D03*
X126600000Y-130600000D03*
X153600000Y-122200000D03*
D60*
X125100000Y-115300000D03*
D59*
X123600000Y-110400000D03*
X123600000Y-98550000D03*
X120400000Y-94400000D03*
X156800000Y-119000000D03*
X118800000Y-109000000D03*
X128900000Y-120300000D03*
X120400000Y-104800000D03*
X136268781Y-105949500D03*
X144850000Y-91250000D03*
X131400000Y-132000000D03*
X122000000Y-95800000D03*
D60*
X158700000Y-115800000D03*
D59*
X146200000Y-97400000D03*
X118800000Y-110400000D03*
X146200000Y-96000000D03*
D60*
X151500000Y-118500000D03*
D59*
X120200000Y-132000000D03*
X158400000Y-130600000D03*
X153600000Y-107800000D03*
X152000000Y-126400000D03*
X144200000Y-132000000D03*
X126800000Y-97200000D03*
X150400000Y-130600000D03*
X156800000Y-123600000D03*
X150400000Y-129200000D03*
X153600000Y-129200000D03*
X147800000Y-97400000D03*
X153600000Y-130600000D03*
X125000000Y-120000000D03*
X150400000Y-120600000D03*
X144200000Y-130600000D03*
X158400000Y-104400000D03*
X131400000Y-130600000D03*
X120400000Y-107600000D03*
X138850000Y-101500000D03*
D60*
X150400000Y-95300000D03*
D59*
X158400000Y-126400000D03*
X114000000Y-110400000D03*
X152000000Y-123600000D03*
D60*
X118900000Y-95700000D03*
D59*
X133800000Y-105800000D03*
X158400000Y-127800000D03*
X136750000Y-91200000D03*
X129600000Y-119200000D03*
X133000000Y-130600000D03*
X142850000Y-103300000D03*
X120400000Y-91600000D03*
X114000000Y-109000000D03*
X134600000Y-132000000D03*
X149600000Y-106400000D03*
X144600000Y-97400000D03*
X152000000Y-122200000D03*
X158400000Y-117400000D03*
X156800000Y-125000000D03*
X129800000Y-130600000D03*
X144600000Y-96000000D03*
D60*
X119000000Y-106400000D03*
D59*
X125700000Y-100400000D03*
X124500000Y-101600000D03*
X131000000Y-91800000D03*
X137874500Y-112900000D03*
X149950000Y-100950000D03*
X144900000Y-100950000D03*
X134705548Y-120255411D03*
X150400000Y-98550000D03*
X145700000Y-115100000D03*
X145200000Y-113400000D03*
X136100000Y-117500000D03*
X147550000Y-99400000D03*
X138784750Y-123497290D03*
X148450000Y-110200000D03*
X142200000Y-114800000D03*
X131025000Y-118750000D03*
X125425000Y-125700000D03*
X124800000Y-116925000D03*
X125675500Y-118350000D03*
X128100000Y-118325000D03*
X127975000Y-125750000D03*
X125625000Y-117475000D03*
X128075000Y-117300000D03*
X126575000Y-125750000D03*
X150750000Y-105150000D03*
X135650000Y-105350000D03*
X141939831Y-123307242D03*
X145000000Y-123350000D03*
X143800000Y-125350000D03*
X142450000Y-125350000D03*
X144700000Y-124150000D03*
X142450000Y-124150000D03*
X137500000Y-121650000D03*
X137700000Y-120350000D03*
X145793031Y-119209426D03*
X126074999Y-105075000D03*
X146643031Y-119209426D03*
X126924999Y-105075000D03*
D60*
X139100000Y-97600000D03*
X129650000Y-94850000D03*
D59*
X137400000Y-101750000D03*
X135700000Y-102250000D03*
X147800000Y-112000000D03*
X143000000Y-114950000D03*
D61*
X136800000Y-124450000D02*
X130600000Y-124450000D01*
D62*
X139800000Y-100495000D02*
X139695000Y-100495000D01*
X144775000Y-110745000D02*
X144775000Y-109775000D01*
D63*
X118900000Y-97400000D02*
X118900000Y-97500000D01*
X152988889Y-117389030D02*
X155393051Y-117389030D01*
D62*
X122225000Y-124475000D02*
X121975000Y-124725000D01*
X146680000Y-117245000D02*
X147655000Y-117245000D01*
X129290000Y-120690000D02*
X128900000Y-120300000D01*
D63*
X120950000Y-112205000D02*
X120950000Y-111150000D01*
D62*
X139475000Y-114375000D02*
X139200000Y-114100000D01*
D61*
X126425000Y-122570000D02*
X126605500Y-122570000D01*
D63*
X159320000Y-115180000D02*
X158700000Y-115800000D01*
X160960000Y-110100000D02*
X160960000Y-108260000D01*
D62*
X121262500Y-101550000D02*
X120173913Y-101550000D01*
X144695000Y-106195000D02*
X144700000Y-106200000D01*
D61*
X135463548Y-91236452D02*
X135500000Y-91200000D01*
D63*
X152175000Y-95137500D02*
X150562500Y-95137500D01*
D62*
X148091906Y-114891906D02*
X148158094Y-114891906D01*
D63*
X143950000Y-93500000D02*
X146325000Y-93500000D01*
D64*
X122450000Y-127350000D02*
X122600000Y-127500000D01*
X122225000Y-127125000D02*
X122450000Y-127350000D01*
D62*
X119640000Y-116160000D02*
X119100000Y-116700000D01*
D63*
X140900000Y-96245000D02*
X142255000Y-96245000D01*
X120950000Y-120050000D02*
X120900000Y-120000000D01*
X117250000Y-96600000D02*
X118100000Y-96600000D01*
X135040000Y-118300000D02*
X134200000Y-118300000D01*
D64*
X126300000Y-127500000D02*
X127300000Y-126500000D01*
D62*
X149430000Y-108730000D02*
X149100000Y-108400000D01*
D63*
X141897500Y-118797500D02*
X140800000Y-117700000D01*
X141925000Y-118797500D02*
X141997500Y-118797500D01*
X160960000Y-116840000D02*
X160200000Y-117600000D01*
X126605500Y-122570000D02*
X127375500Y-121800000D01*
X150562500Y-95137500D02*
X150400000Y-95300000D01*
D62*
X149430000Y-109350000D02*
X149430000Y-108730000D01*
X136445000Y-103945000D02*
X136445000Y-104555000D01*
D63*
X117250000Y-97075000D02*
X117250000Y-96600000D01*
D62*
X145540000Y-108860000D02*
X146000000Y-108400000D01*
X148091906Y-114891906D02*
X148733812Y-114250000D01*
X133950000Y-104350000D02*
X134300000Y-104000000D01*
X145540000Y-109345000D02*
X145540000Y-108860000D01*
D63*
X134125000Y-111045000D02*
X134845000Y-111045000D01*
X118100000Y-96600000D02*
X118900000Y-95800000D01*
X118000000Y-105500000D02*
X118300000Y-105500000D01*
D62*
X144775000Y-109775000D02*
X144700000Y-109700000D01*
D63*
X160960000Y-108260000D02*
X160350000Y-107650000D01*
D62*
X136445000Y-104555000D02*
X136300000Y-104700000D01*
D63*
X113710000Y-94590000D02*
X114200000Y-94100000D01*
D62*
X134604223Y-91236452D02*
X135463548Y-91236452D01*
X143825000Y-112425000D02*
X143400000Y-112000000D01*
X140595000Y-112045000D02*
X139645000Y-112045000D01*
D63*
X125505000Y-112595000D02*
X125100000Y-113000000D01*
D64*
X139965000Y-102365000D02*
X139965000Y-102335000D01*
D63*
X113910000Y-107510000D02*
X114300000Y-107900000D01*
X117100000Y-105025000D02*
X116320000Y-104245000D01*
X160960000Y-115180000D02*
X160960000Y-116840000D01*
D62*
X123425000Y-115660000D02*
X124740000Y-115660000D01*
D63*
X134200000Y-118300000D02*
X134000000Y-118100000D01*
X152443812Y-117556188D02*
X151500000Y-118500000D01*
D62*
X120525000Y-124975000D02*
X119525000Y-124975000D01*
D63*
X141925000Y-118797500D02*
X141902500Y-118797500D01*
X117100000Y-106250000D02*
X117100000Y-105500000D01*
D62*
X139020000Y-122395000D02*
X139020000Y-121820000D01*
X148733812Y-114250000D02*
X149050000Y-114250000D01*
D63*
X118300000Y-105500000D02*
X119000000Y-104800000D01*
X130425000Y-127895000D02*
X130425000Y-128175000D01*
D61*
X135225000Y-92825000D02*
X135200000Y-92800000D01*
D64*
X122225000Y-126175000D02*
X122225000Y-124975000D01*
D63*
X142255000Y-96245000D02*
X142300000Y-96200000D01*
X122025000Y-111175000D02*
X122100000Y-111100000D01*
D62*
X120173913Y-101550000D02*
X120170242Y-101553671D01*
D63*
X136800000Y-128150000D02*
X136800000Y-129400000D01*
D62*
X123425000Y-124475000D02*
X125825000Y-124475000D01*
X136273281Y-105945000D02*
X136268781Y-105949500D01*
X146680000Y-116100000D02*
X147700000Y-116100000D01*
X139375000Y-129225000D02*
X139000000Y-129600000D01*
D61*
X142835000Y-103315000D02*
X142850000Y-103300000D01*
D63*
X160960000Y-110100000D02*
X159200000Y-110100000D01*
D62*
X147655000Y-117245000D02*
X147700000Y-117200000D01*
X133950000Y-104995000D02*
X133950000Y-104350000D01*
D61*
X141365000Y-103315000D02*
X140540000Y-103315000D01*
D63*
X155393051Y-117389030D02*
X155579447Y-117202634D01*
X120950000Y-111150000D02*
X120900000Y-111100000D01*
D62*
X137165000Y-105945000D02*
X136273281Y-105945000D01*
X140000000Y-110745000D02*
X140000000Y-110100000D01*
X126300000Y-124000000D02*
X126300000Y-122695000D01*
D63*
X136925000Y-127895000D02*
X136925000Y-128025000D01*
D62*
X125825000Y-124475000D02*
X126300000Y-124000000D01*
D64*
X122225000Y-117347500D02*
X122225000Y-118325000D01*
D62*
X137000000Y-99895000D02*
X137595000Y-99895000D01*
D64*
X122225000Y-118325000D02*
X122400000Y-118500000D01*
D62*
X144255000Y-107845000D02*
X144700000Y-107400000D01*
D63*
X148225000Y-124140000D02*
X148225000Y-123425000D01*
X148225000Y-123425000D02*
X147900000Y-123100000D01*
X132025000Y-96126632D02*
X130773368Y-96126632D01*
X159200000Y-110100000D02*
X158700000Y-109600000D01*
X118900000Y-106400000D02*
X119000000Y-106400000D01*
X116539991Y-95000000D02*
X117250000Y-95710009D01*
X152821731Y-117556188D02*
X152443812Y-117556188D01*
D62*
X151152602Y-113029379D02*
X151152602Y-113100090D01*
X137000000Y-99895000D02*
X137000000Y-100100000D01*
D63*
X122025000Y-112200000D02*
X122025000Y-111175000D01*
D62*
X121725000Y-124975000D02*
X121975000Y-124725000D01*
X139695000Y-100495000D02*
X138800000Y-99600000D01*
X120525000Y-124975000D02*
X121725000Y-124975000D01*
D63*
X116350000Y-107000000D02*
X117100000Y-106250000D01*
X120950000Y-121020000D02*
X120950000Y-120050000D01*
D62*
X123425000Y-115660000D02*
X122225000Y-115660000D01*
D63*
X113910000Y-107000000D02*
X116350000Y-107000000D01*
D61*
X126425000Y-122570000D02*
X126425000Y-122625000D01*
D63*
X141952000Y-118797500D02*
X143100000Y-117649500D01*
D62*
X143825000Y-113115000D02*
X143825000Y-112425000D01*
X120525000Y-116160000D02*
X121725000Y-116160000D01*
X139475000Y-115120000D02*
X139475000Y-114375000D01*
X133525000Y-106075000D02*
X133800000Y-105800000D01*
X133525000Y-106620000D02*
X133525000Y-106075000D01*
D61*
X139965000Y-102615000D02*
X138850000Y-101500000D01*
D64*
X139965000Y-100660000D02*
X139800000Y-100495000D01*
D62*
X140000000Y-110100000D02*
X139500000Y-109600000D01*
D63*
X152821731Y-117556188D02*
X152988889Y-117389030D01*
D62*
X122225000Y-115660000D02*
X121975000Y-115910000D01*
D64*
X122225000Y-126175000D02*
X122225000Y-127125000D01*
D62*
X129290000Y-121200000D02*
X129290000Y-120690000D01*
D63*
X166040000Y-115180000D02*
X160960000Y-115180000D01*
D61*
X138565000Y-103815000D02*
X139465000Y-103815000D01*
D63*
X118100000Y-96600000D02*
X118900000Y-97400000D01*
X166040000Y-110100000D02*
X160960000Y-110100000D01*
X116320000Y-104245000D02*
X115380000Y-104245000D01*
D64*
X122225000Y-117360000D02*
X122225000Y-116160000D01*
D62*
X139020000Y-121820000D02*
X138800000Y-121600000D01*
D63*
X130773368Y-96126632D02*
X130700000Y-96200000D01*
D61*
X141365000Y-103315000D02*
X142835000Y-103315000D01*
D62*
X119525000Y-124975000D02*
X119100000Y-125400000D01*
X153039411Y-120139411D02*
X153800000Y-120900000D01*
D63*
X141997500Y-118797500D02*
X143000000Y-119800000D01*
D62*
X121725000Y-116160000D02*
X121975000Y-115910000D01*
D64*
X139965000Y-102365000D02*
X139965000Y-100660000D01*
D62*
X150586916Y-112463693D02*
X151152602Y-113029379D01*
D63*
X117100000Y-105500000D02*
X118000000Y-105500000D01*
D64*
X122600000Y-127500000D02*
X126300000Y-127500000D01*
D62*
X138300000Y-115115000D02*
X138300000Y-114100000D01*
D63*
X117250000Y-96600000D02*
X117250000Y-95710009D01*
D62*
X120525000Y-116160000D02*
X119640000Y-116160000D01*
D63*
X122049999Y-120049999D02*
X122000000Y-120000000D01*
D61*
X139965000Y-102385000D02*
X140850000Y-101500000D01*
D63*
X128855000Y-93545000D02*
X128700000Y-93700000D01*
D62*
X143100000Y-107845000D02*
X144255000Y-107845000D01*
X126300000Y-122695000D02*
X126425000Y-122570000D01*
D63*
X113710000Y-95000000D02*
X113710000Y-94590000D01*
X155579447Y-117202634D02*
X156702634Y-117202634D01*
D62*
X135225000Y-93745000D02*
X135225000Y-92825000D01*
X143100000Y-106195000D02*
X144695000Y-106195000D01*
D63*
X141925000Y-118797500D02*
X141952000Y-118797500D01*
X118900000Y-95800000D02*
X118900000Y-95700000D01*
X156702634Y-117202634D02*
X157200000Y-117700000D01*
D64*
X122225000Y-124975000D02*
X121975000Y-124725000D01*
D63*
X117100000Y-105500000D02*
X117100000Y-105025000D01*
X115380000Y-97845000D02*
X116480000Y-97845000D01*
D62*
X139645000Y-112045000D02*
X139600000Y-112000000D01*
X137595000Y-99895000D02*
X138100000Y-100400000D01*
D63*
X141925000Y-118797500D02*
X141897500Y-118797500D01*
D61*
X127300000Y-126500000D02*
X127300000Y-126300000D01*
D62*
X139375000Y-128925000D02*
X139375000Y-129225000D01*
X152940000Y-115340000D02*
X153600589Y-114679411D01*
D61*
X122450000Y-127350000D02*
X122500000Y-127400000D01*
D63*
X122049999Y-121020000D02*
X122049999Y-120049999D01*
X130600000Y-128150000D02*
X130600000Y-129400000D01*
X134845000Y-111045000D02*
X135400000Y-111600000D01*
X118000000Y-105500000D02*
X118900000Y-106400000D01*
X113910000Y-107000000D02*
X113910000Y-107510000D01*
X131325000Y-93545000D02*
X128855000Y-93545000D01*
X126425000Y-112595000D02*
X125505000Y-112595000D01*
X160960000Y-115180000D02*
X159320000Y-115180000D01*
D62*
X123425000Y-124475000D02*
X122225000Y-124475000D01*
D63*
X116480000Y-97845000D02*
X117250000Y-97075000D01*
X113710000Y-95000000D02*
X116539991Y-95000000D01*
D62*
X124740000Y-115660000D02*
X125100000Y-115300000D01*
D63*
X141902500Y-118797500D02*
X140800000Y-119900000D01*
D64*
X122225000Y-116160000D02*
X121975000Y-115910000D01*
D63*
X122375000Y-99275000D02*
X122375000Y-101550000D01*
D61*
X132600000Y-94100000D02*
X132600000Y-92000000D01*
D63*
X115380000Y-103445000D02*
X121828528Y-103445000D01*
X131105000Y-98545000D02*
X132625000Y-98545000D01*
X124450000Y-101550000D02*
X124500000Y-101600000D01*
D61*
X133600000Y-94495000D02*
X132995000Y-94495000D01*
X132600000Y-92000000D02*
X131745000Y-91145000D01*
D63*
X125700000Y-100400000D02*
X125700000Y-99400000D01*
D61*
X131745000Y-91145000D02*
X128855000Y-91145000D01*
D63*
X121745000Y-98645000D02*
X122375000Y-99275000D01*
X121828528Y-103445000D02*
X122375000Y-102898528D01*
X123537500Y-101550000D02*
X124450000Y-101550000D01*
X122375000Y-101550000D02*
X122375000Y-102050000D01*
X125700000Y-99400000D02*
X130250000Y-99400000D01*
X121745000Y-98645000D02*
X122500000Y-99400000D01*
X122375000Y-102898528D02*
X122375000Y-102050000D01*
X130250000Y-99400000D02*
X131105000Y-98545000D01*
X123537500Y-101550000D02*
X122375000Y-101550000D01*
X122500000Y-99400000D02*
X125700000Y-99400000D01*
X115380000Y-98645000D02*
X121745000Y-98645000D01*
D61*
X132995000Y-94495000D02*
X132600000Y-94100000D01*
X139142157Y-115807843D02*
X138875000Y-116075000D01*
X138300000Y-116075000D02*
X137690000Y-115465000D01*
X137690000Y-115465000D02*
X137690000Y-113810000D01*
X140092157Y-115807843D02*
X139142157Y-115807843D01*
X129412500Y-92545000D02*
X131275000Y-92545000D01*
X131325000Y-92125000D02*
X131000000Y-91800000D01*
X138875000Y-116075000D02*
X138300000Y-116075000D01*
X137690000Y-113810000D02*
X137874500Y-113625500D01*
X131275000Y-92545000D02*
X131325000Y-92595000D01*
X131325000Y-92595000D02*
X131325000Y-92125000D01*
X140175000Y-116347500D02*
X140175000Y-115890686D01*
X140175000Y-115890686D02*
X140092157Y-115807843D01*
X137874500Y-113625500D02*
X137874500Y-112900000D01*
X156137500Y-101387500D02*
X154550000Y-99800000D01*
X157175000Y-101387500D02*
X156137500Y-101387500D01*
X142100000Y-100800000D02*
X142100000Y-102000000D01*
X144350000Y-100950000D02*
X144900000Y-100950000D01*
X141350000Y-100495000D02*
X143895000Y-100495000D01*
D62*
X135425000Y-98205000D02*
X136200000Y-98205000D01*
X136200000Y-98205000D02*
X136520000Y-98525000D01*
X135869239Y-101500000D02*
X134400000Y-101500000D01*
D61*
X143895000Y-100495000D02*
X144350000Y-100950000D01*
X141350000Y-100495000D02*
X141795000Y-100495000D01*
D62*
X133355000Y-102545000D02*
X132625000Y-102545000D01*
D61*
X141785000Y-102315000D02*
X141365000Y-102315000D01*
X142100000Y-102000000D02*
X141785000Y-102315000D01*
X141795000Y-100495000D02*
X142100000Y-100800000D01*
D62*
X136520000Y-98525000D02*
X141025000Y-98525000D01*
X136415000Y-102045761D02*
X135869239Y-101500000D01*
X141025000Y-98525000D02*
X141350000Y-98850000D01*
X136415000Y-102845000D02*
X136415000Y-102045761D01*
X141350000Y-98850000D02*
X141350000Y-100495000D01*
D61*
X151100000Y-99800000D02*
X149950000Y-100950000D01*
X154550000Y-99800000D02*
X151100000Y-99800000D01*
D62*
X134400000Y-101500000D02*
X133355000Y-102545000D01*
D61*
X141045000Y-106195000D02*
X140795000Y-105945000D01*
D62*
X145200000Y-112600000D02*
X145200000Y-113400000D01*
X142150000Y-105595000D02*
X141550000Y-106195000D01*
D61*
X135445411Y-120255411D02*
X135490000Y-120300000D01*
X137347500Y-118300000D02*
X137600000Y-118047500D01*
X134705548Y-120255411D02*
X135445411Y-120255411D01*
D62*
X145700000Y-115100000D02*
X145700000Y-116080000D01*
X145700000Y-116080000D02*
X145720000Y-116100000D01*
X142150000Y-104750000D02*
X142150000Y-105595000D01*
D61*
X145720000Y-116180000D02*
X144852500Y-117047500D01*
D62*
X141715000Y-104315000D02*
X142150000Y-104750000D01*
X145720000Y-116100000D02*
X145720000Y-117245000D01*
D61*
X136000000Y-118300000D02*
X137347500Y-118300000D01*
X136000000Y-118300000D02*
X136000000Y-117600000D01*
D62*
X143225000Y-110745000D02*
X143345000Y-110745000D01*
D61*
X141540000Y-113085000D02*
X141550000Y-113095000D01*
D62*
X141550000Y-110745000D02*
X141550000Y-112040000D01*
X144300000Y-111700000D02*
X145200000Y-112600000D01*
D61*
X155600000Y-98200000D02*
X155250000Y-98550000D01*
X141565000Y-113110000D02*
X141550000Y-113095000D01*
X144362500Y-117047500D02*
X144852500Y-117047500D01*
D62*
X141550000Y-112040000D02*
X141555000Y-112045000D01*
X141550000Y-107845000D02*
X141550000Y-106195000D01*
X141550000Y-109200000D02*
X141550000Y-110745000D01*
D61*
X139980000Y-122395000D02*
X138877710Y-123497290D01*
D62*
X142145000Y-112045000D02*
X142350000Y-112250000D01*
X141365000Y-104315000D02*
X141715000Y-104315000D01*
D61*
X157175000Y-96625000D02*
X155600000Y-98200000D01*
X140175000Y-122200000D02*
X139980000Y-122395000D01*
D62*
X141550000Y-107845000D02*
X141550000Y-109200000D01*
D61*
X141550000Y-106195000D02*
X141045000Y-106195000D01*
D62*
X141555000Y-112045000D02*
X141555000Y-113090000D01*
X142675000Y-112575000D02*
X142675000Y-113110000D01*
D61*
X146600000Y-106667251D02*
X144067251Y-109200000D01*
X140795000Y-105945000D02*
X140235000Y-105945000D01*
X146600000Y-100350000D02*
X146600000Y-106667251D01*
D62*
X143345000Y-110745000D02*
X144300000Y-111700000D01*
D61*
X140425000Y-113085000D02*
X141540000Y-113085000D01*
X145720000Y-116100000D02*
X145720000Y-116180000D01*
X140175000Y-121247500D02*
X140175000Y-122200000D01*
X152200000Y-98550000D02*
X150400000Y-98550000D01*
X155250000Y-98550000D02*
X152200000Y-98550000D01*
X145417500Y-117547500D02*
X145720000Y-117245000D01*
X157175000Y-95137500D02*
X157175000Y-96625000D01*
D62*
X142350000Y-112250000D02*
X142675000Y-112575000D01*
D61*
X144067251Y-109200000D02*
X141550000Y-109200000D01*
D62*
X141550000Y-110745000D02*
X143225000Y-110745000D01*
D61*
X136100000Y-117500000D02*
X136050000Y-117550000D01*
X144362500Y-117547500D02*
X145417500Y-117547500D01*
X138877710Y-123497290D02*
X138784750Y-123497290D01*
D62*
X141555000Y-112045000D02*
X142145000Y-112045000D01*
D61*
X137600000Y-118047500D02*
X139475000Y-118047500D01*
X136000000Y-117600000D02*
X136100000Y-117500000D01*
X147550000Y-99400000D02*
X146600000Y-100350000D01*
D62*
X141555000Y-113090000D02*
X141550000Y-113095000D01*
D63*
X126425000Y-115075000D02*
X127650000Y-113850000D01*
D62*
X121225000Y-114460000D02*
X121225000Y-113975000D01*
D61*
X124775000Y-121040000D02*
X124755000Y-121020000D01*
X124775000Y-122690000D02*
X124775000Y-121040000D01*
D63*
X132575000Y-111045000D02*
X131400000Y-111045000D01*
D62*
X121725000Y-113460000D02*
X122020000Y-113165000D01*
X121725000Y-114460000D02*
X121725000Y-113460000D01*
D63*
X131400000Y-111045000D02*
X126425000Y-111045000D01*
X126425000Y-119425000D02*
X126425000Y-116150000D01*
X125405000Y-111045000D02*
X123290000Y-113160000D01*
D61*
X126415000Y-116160000D02*
X126425000Y-116150000D01*
D63*
X126425000Y-121020000D02*
X124755000Y-121020000D01*
D62*
X120950000Y-122575000D02*
X120950000Y-121980000D01*
D61*
X125250000Y-113850000D02*
X123940000Y-115160000D01*
D62*
X121225000Y-123275000D02*
X121225000Y-122850000D01*
D61*
X127000000Y-119425000D02*
X126425000Y-119425000D01*
X126700000Y-124975000D02*
X128100000Y-123575000D01*
D63*
X129950000Y-113850000D02*
X131400000Y-112400000D01*
X124755000Y-121020000D02*
X123795000Y-121980000D01*
D62*
X121725000Y-122304999D02*
X122049999Y-121980000D01*
D61*
X123425000Y-116160000D02*
X126415000Y-116160000D01*
D63*
X127650000Y-113850000D02*
X129950000Y-113850000D01*
X126425000Y-111045000D02*
X125405000Y-111045000D01*
X123290000Y-113160000D02*
X122025000Y-113160000D01*
D61*
X122020000Y-113165000D02*
X122025000Y-113160000D01*
D62*
X121225000Y-113975000D02*
X120950000Y-113700000D01*
D63*
X126425000Y-121020000D02*
X126425000Y-119425000D01*
D61*
X127650000Y-113850000D02*
X125250000Y-113850000D01*
X128100000Y-120400000D02*
X127125000Y-119425000D01*
D63*
X126425000Y-116150000D02*
X126425000Y-115075000D01*
X132575000Y-109420000D02*
X132575000Y-111045000D01*
X123795000Y-121980000D02*
X122049999Y-121980000D01*
D61*
X123940000Y-115160000D02*
X123425000Y-115160000D01*
D63*
X131400000Y-112400000D02*
X131400000Y-111045000D01*
D61*
X127125000Y-119425000D02*
X127000000Y-119425000D01*
D63*
X120950000Y-113165000D02*
X122020000Y-113165000D01*
D61*
X128100000Y-123575000D02*
X128100000Y-120400000D01*
X123425000Y-124975000D02*
X126700000Y-124975000D01*
D62*
X121225000Y-122850000D02*
X120950000Y-122575000D01*
X120950000Y-113700000D02*
X120950000Y-113165000D01*
D63*
X120950000Y-121980000D02*
X122049999Y-121980000D01*
D62*
X121725000Y-123275000D02*
X121725000Y-122304999D01*
D61*
X139375000Y-127965000D02*
X141010000Y-127965000D01*
X139927197Y-123050000D02*
X139375000Y-123602197D01*
X141010000Y-127965000D02*
X141025000Y-127950000D01*
X140675000Y-122725000D02*
X140350000Y-123050000D01*
X139375000Y-123602197D02*
X139375000Y-127965000D01*
X140675000Y-121247500D02*
X140675000Y-122725000D01*
X140350000Y-123050000D02*
X139927197Y-123050000D01*
X148470000Y-110180000D02*
X148450000Y-110200000D01*
X154675000Y-95137500D02*
X154675000Y-96425000D01*
X141675000Y-116347500D02*
X141675000Y-115390686D01*
X148470000Y-98130000D02*
X148470000Y-109350000D01*
X148500000Y-109380000D02*
X148470000Y-109350000D01*
X153850000Y-97250000D02*
X149350000Y-97250000D01*
X142200000Y-114865686D02*
X142200000Y-114800000D01*
X149350000Y-97250000D02*
X148470000Y-98130000D01*
X154675000Y-96425000D02*
X153850000Y-97250000D01*
X148470000Y-109350000D02*
X148470000Y-110180000D01*
X141675000Y-115390686D02*
X142200000Y-114865686D01*
D62*
X131612500Y-120900000D02*
X131000000Y-120900000D01*
X131000000Y-120900000D02*
X130700000Y-121200000D01*
X130310000Y-121200000D02*
X130700000Y-121200000D01*
D61*
X132850000Y-118750000D02*
X131025000Y-118750000D01*
X124075000Y-125475000D02*
X123425000Y-125475000D01*
X123985000Y-116660000D02*
X124250000Y-116925000D01*
X136800000Y-119600000D02*
X133700000Y-119600000D01*
X138900000Y-119047500D02*
X138800000Y-119147500D01*
X137252500Y-119147500D02*
X136800000Y-119600000D01*
X139475000Y-119047500D02*
X138900000Y-119047500D01*
X138800000Y-119147500D02*
X137252500Y-119147500D01*
X133700000Y-119600000D02*
X132850000Y-118750000D01*
X124650000Y-126050000D02*
X124075000Y-125475000D01*
X125425000Y-125700000D02*
X125075000Y-126050000D01*
X125075000Y-126050000D02*
X124650000Y-126050000D01*
X123425000Y-116660000D02*
X123985000Y-116660000D01*
X124800000Y-116925000D02*
X124250000Y-116925000D01*
X136952500Y-118747500D02*
X136500000Y-119200000D01*
X127975000Y-126675000D02*
X127975000Y-125750000D01*
X124400000Y-119200000D02*
X124800000Y-119200000D01*
X122251471Y-119200000D02*
X124400000Y-119200000D01*
X133900000Y-119200000D02*
X132575000Y-117875000D01*
X124800000Y-119200000D02*
X124825500Y-119200000D01*
X121725000Y-118673529D02*
X122251471Y-119200000D01*
X121725000Y-126175000D02*
X121725000Y-127400000D01*
X137702500Y-118747500D02*
X136952500Y-118747500D01*
X128550000Y-117875000D02*
X128100000Y-118325000D01*
X121725000Y-117360000D02*
X121725000Y-118673529D01*
X121725000Y-127400000D02*
X122250000Y-127925000D01*
X126725000Y-127925000D02*
X127975000Y-126675000D01*
X122250000Y-127925000D02*
X126725000Y-127925000D01*
X139475000Y-118547500D02*
X137902500Y-118547500D01*
X132575000Y-117875000D02*
X128550000Y-117875000D01*
X124825500Y-119200000D02*
X124400000Y-119200000D01*
X136500000Y-119200000D02*
X133900000Y-119200000D01*
X137902500Y-118547500D02*
X137702500Y-118747500D01*
X125675500Y-118350000D02*
X124825500Y-119200000D01*
X126025000Y-127050000D02*
X126575000Y-126500000D01*
X125550000Y-117475000D02*
X124900000Y-118125000D01*
X122725000Y-126175000D02*
X122725000Y-126725000D01*
X138747500Y-117547500D02*
X138400000Y-117200000D01*
X122725000Y-117875000D02*
X122725000Y-117360000D01*
X122975000Y-118125000D02*
X122725000Y-117875000D01*
X134200000Y-116900000D02*
X133800000Y-117300000D01*
X137159314Y-116900000D02*
X134200000Y-116900000D01*
X138400000Y-117200000D02*
X137459314Y-117200000D01*
X124900000Y-118125000D02*
X122975000Y-118125000D01*
X139475000Y-117547500D02*
X138747500Y-117547500D01*
X125625000Y-117475000D02*
X125550000Y-117475000D01*
X137459314Y-117200000D02*
X137159314Y-116900000D01*
X123050000Y-127050000D02*
X126025000Y-127050000D01*
X122725000Y-126725000D02*
X123050000Y-127050000D01*
X133800000Y-117300000D02*
X128075000Y-117300000D01*
X126575000Y-126500000D02*
X126575000Y-125750000D01*
X123435000Y-123985000D02*
X123425000Y-123975000D01*
X123425000Y-123975000D02*
X124125000Y-123975000D01*
X124125000Y-123975000D02*
X124390000Y-123710000D01*
X124390000Y-123710000D02*
X124775000Y-123710000D01*
D62*
X112690000Y-98290000D02*
X112690000Y-95000000D01*
X114195000Y-99795000D02*
X112690000Y-98290000D01*
X115380000Y-99795000D02*
X114195000Y-99795000D01*
D61*
X115904036Y-101775000D02*
X115899036Y-101770000D01*
D65*
X115380000Y-101795000D02*
X114045000Y-101795000D01*
D61*
X115805000Y-101795000D02*
X115380000Y-101795000D01*
X115899036Y-101770000D02*
X115830000Y-101770000D01*
D65*
X113725000Y-101475000D02*
X113725000Y-101100000D01*
D61*
X121262500Y-102500000D02*
X120268749Y-102500000D01*
X119543749Y-101775000D02*
X115904036Y-101775000D01*
X115830000Y-101770000D02*
X115805000Y-101795000D01*
D65*
X114030000Y-100795000D02*
X115380000Y-100795000D01*
X114045000Y-101795000D02*
X113725000Y-101475000D01*
D61*
X120268749Y-102500000D02*
X119543749Y-101775000D01*
D65*
X113725000Y-101100000D02*
X114030000Y-100795000D01*
D61*
X115830000Y-101320000D02*
X115805000Y-101295000D01*
D65*
X116305000Y-101295000D02*
X116650000Y-100950000D01*
X116650000Y-100950000D02*
X116650000Y-100625000D01*
D61*
X119543749Y-101325000D02*
X116076242Y-101325000D01*
X116071242Y-101320000D02*
X115830000Y-101320000D01*
D65*
X116320000Y-100295000D02*
X115380000Y-100295000D01*
D61*
X121262500Y-100600000D02*
X120268749Y-100600000D01*
D65*
X115380000Y-101295000D02*
X116305000Y-101295000D01*
X116650000Y-100625000D02*
X116320000Y-100295000D01*
D61*
X115805000Y-101295000D02*
X115380000Y-101295000D01*
X116076242Y-101325000D02*
X116071242Y-101320000D01*
X120268749Y-100600000D02*
X119543749Y-101325000D01*
D62*
X114205000Y-102795000D02*
X115380000Y-102795000D01*
X112890000Y-107000000D02*
X112890000Y-104110000D01*
X112890000Y-104110000D02*
X114205000Y-102795000D01*
D61*
X135300000Y-104310000D02*
X135300000Y-105000000D01*
X135300000Y-105000000D02*
X135650000Y-105350000D01*
X152175000Y-103725000D02*
X150750000Y-105150000D01*
X152175000Y-101387500D02*
X152175000Y-103725000D01*
X137575000Y-116750000D02*
X138700000Y-116750000D01*
X137275000Y-116450000D02*
X137575000Y-116750000D01*
X135975000Y-110300000D02*
X137275000Y-111600000D01*
X135975000Y-109705000D02*
X135975000Y-110300000D01*
X138700000Y-116750000D02*
X138997500Y-117047500D01*
X137275000Y-111600000D02*
X137275000Y-116450000D01*
X138997500Y-117047500D02*
X139475000Y-117047500D01*
X140278604Y-123450000D02*
X140700000Y-123450000D01*
X141175000Y-121700000D02*
X141175000Y-122975000D01*
X141175000Y-121247500D02*
X141175000Y-121700000D01*
X139850000Y-123878604D02*
X140278604Y-123450000D01*
X141175000Y-122975000D02*
X140700000Y-123450000D01*
X141025000Y-126680000D02*
X140080000Y-126680000D01*
X140080000Y-126680000D02*
X139850000Y-126450000D01*
X139850000Y-126450000D02*
X139850000Y-123878604D01*
X145000000Y-123350000D02*
X147060000Y-125410000D01*
X141675000Y-121247500D02*
X141675000Y-123042411D01*
X147060000Y-125410000D02*
X148225000Y-125410000D01*
X141675000Y-123042411D02*
X141939831Y-123307242D01*
X142450000Y-125350000D02*
X141085000Y-125350000D01*
X142675000Y-122325000D02*
X143450000Y-123100000D01*
X142675000Y-121247500D02*
X142675000Y-122325000D01*
X143800000Y-123450000D02*
X143800000Y-125350000D01*
X141085000Y-125350000D02*
X141025000Y-125410000D01*
X143450000Y-123100000D02*
X143800000Y-123450000D01*
X144400000Y-123850000D02*
X144700000Y-124150000D01*
X143175000Y-121247500D02*
X143175000Y-121790685D01*
X142450000Y-124150000D02*
X141035000Y-124150000D01*
X144400000Y-123015685D02*
X144400000Y-123650000D01*
X141035000Y-124150000D02*
X141025000Y-124140000D01*
X143175000Y-121790685D02*
X144400000Y-123015685D01*
X144400000Y-123650000D02*
X144400000Y-123850000D01*
X149750000Y-125955000D02*
X149025000Y-126680000D01*
X143675000Y-121725000D02*
X143850000Y-121900000D01*
X149750000Y-122700000D02*
X149750000Y-125955000D01*
X143675000Y-121247500D02*
X143675000Y-121725000D01*
X143850000Y-121900000D02*
X148950000Y-121900000D01*
X148950000Y-121900000D02*
X149750000Y-122700000D01*
X149025000Y-126680000D02*
X148225000Y-126680000D01*
X137500000Y-122820000D02*
X136800000Y-123520000D01*
X137500000Y-121650000D02*
X137500000Y-122820000D01*
X139475000Y-120047500D02*
X138002500Y-120047500D01*
X138002500Y-120047500D02*
X137700000Y-120350000D01*
X136800000Y-123520000D02*
X136800000Y-124450000D01*
X145993030Y-119688770D02*
X145993030Y-119409425D01*
X144982501Y-120047500D02*
X145007501Y-120072500D01*
X145609300Y-120072500D02*
X145993030Y-119688770D01*
X126274998Y-102143198D02*
X125906800Y-101775000D01*
X145993030Y-119409425D02*
X145793031Y-119209426D01*
X144375000Y-120047500D02*
X144982501Y-120047500D01*
X144375000Y-120047500D02*
X144399999Y-120072499D01*
X123537500Y-102500000D02*
X124531251Y-102500000D01*
X126074999Y-105075000D02*
X126274998Y-104875001D01*
X145007501Y-120072500D02*
X145609300Y-120072500D01*
X125256251Y-101775000D02*
X125906800Y-101775000D01*
X126274998Y-104875001D02*
X126274998Y-102143198D01*
X124531251Y-102500000D02*
X125256251Y-101775000D01*
X145007501Y-120522500D02*
X145795700Y-120522500D01*
X126725000Y-101956800D02*
X126093200Y-101325000D01*
X125256251Y-101325000D02*
X126093200Y-101325000D01*
X144375000Y-120547500D02*
X144399999Y-120522501D01*
X145795700Y-120522500D02*
X146443032Y-119875168D01*
X123537500Y-100600000D02*
X124531251Y-100600000D01*
X144375000Y-120547500D02*
X144982501Y-120547500D01*
X146443032Y-119409425D02*
X146643031Y-119209426D01*
X144982501Y-120547500D02*
X145007501Y-120522500D01*
X124531251Y-100600000D02*
X125256251Y-101325000D01*
X146443032Y-119875168D02*
X146443032Y-119409425D01*
X126725000Y-104875001D02*
X126725000Y-101956800D01*
X126924999Y-105075000D02*
X126725000Y-104875001D01*
X142175000Y-122675000D02*
X143150000Y-123650000D01*
X143150000Y-127500000D02*
X143600000Y-127950000D01*
X143150000Y-123650000D02*
X143150000Y-127500000D01*
X142175000Y-121247500D02*
X142175000Y-122675000D01*
X143600000Y-127950000D02*
X148225000Y-127950000D01*
D63*
X139350000Y-96245000D02*
X138525000Y-96245000D01*
X130005000Y-94495000D02*
X129650000Y-94850000D01*
X131325000Y-94495000D02*
X130005000Y-94495000D01*
X138525000Y-96245000D02*
X137525000Y-97245000D01*
X139350000Y-96245000D02*
X139350000Y-93500000D01*
X139350000Y-97350000D02*
X139100000Y-97600000D01*
X139350000Y-96245000D02*
X139350000Y-97350000D01*
D61*
X133600000Y-91252229D02*
X133584223Y-91236452D01*
X133600000Y-92595000D02*
X133600000Y-91252229D01*
X127835000Y-91145000D02*
X127835000Y-92542500D01*
X127835000Y-92542500D02*
X127837500Y-92545000D01*
X138100000Y-105300000D02*
X138185000Y-105385000D01*
X138565000Y-104315000D02*
X138185000Y-104315000D01*
X138185000Y-105385000D02*
X138185000Y-105945000D01*
X138185000Y-104315000D02*
X138100000Y-104400000D01*
X139215000Y-105945000D02*
X138185000Y-105945000D01*
X138100000Y-104400000D02*
X138100000Y-105300000D01*
X135700000Y-102890000D02*
X135300000Y-103290000D01*
X138565000Y-102315000D02*
X137965000Y-102315000D01*
X135700000Y-102250000D02*
X135700000Y-102890000D01*
X137965000Y-102315000D02*
X137400000Y-101750000D01*
X143225000Y-104357500D02*
X142807500Y-104357500D01*
X142150000Y-103815000D02*
X141365000Y-103815000D01*
X142807500Y-104357500D02*
X142150000Y-103815000D01*
X142185000Y-102815000D02*
X141365000Y-102815000D01*
X143225000Y-102232500D02*
X142767500Y-102232500D01*
X142767500Y-102232500D02*
X142185000Y-102815000D01*
X137950000Y-103550000D02*
X137950000Y-103300000D01*
X137405000Y-103945000D02*
X137700000Y-103650000D01*
X137850000Y-103650000D02*
X137950000Y-103550000D01*
X138135000Y-102815000D02*
X138565000Y-102815000D01*
X137950000Y-103000000D02*
X138135000Y-102815000D01*
X138565000Y-103315000D02*
X137965000Y-103315000D01*
X137950000Y-103050000D02*
X137950000Y-103000000D01*
X137435000Y-102845000D02*
X137745000Y-102845000D01*
X137950000Y-103300000D02*
X137950000Y-103050000D01*
X137700000Y-103650000D02*
X137850000Y-103650000D01*
X137745000Y-102845000D02*
X137950000Y-103050000D01*
X137965000Y-103315000D02*
X137950000Y-103300000D01*
D63*
X131205000Y-109095000D02*
X130225000Y-109095000D01*
X133850000Y-108150000D02*
X132150000Y-108150000D01*
X134475000Y-109420000D02*
X134475000Y-108775000D01*
X134475000Y-108775000D02*
X133850000Y-108150000D01*
X132150000Y-108150000D02*
X131205000Y-109095000D01*
D62*
X135975000Y-108685000D02*
X135975000Y-108075000D01*
X134475000Y-107175000D02*
X134475000Y-106620000D01*
X135050000Y-107750000D02*
X134475000Y-107175000D01*
X135975000Y-108075000D02*
X135650000Y-107750000D01*
X135650000Y-107750000D02*
X135050000Y-107750000D01*
D61*
X143820000Y-114080000D02*
X143825000Y-114075000D01*
X143825000Y-115009314D02*
X143175000Y-115659314D01*
X143825000Y-114075000D02*
X143825000Y-115009314D01*
X143175000Y-115659314D02*
X143175000Y-116347500D01*
X142675000Y-116347500D02*
X143175000Y-116347500D01*
X142675000Y-114080000D02*
X143820000Y-114080000D01*
D64*
X147413084Y-114213084D02*
X147276168Y-114350000D01*
X143675000Y-116347500D02*
X143675000Y-115825000D01*
X147276168Y-114350000D02*
X145150000Y-114350000D01*
D62*
X147479881Y-114213084D02*
X148365147Y-113327818D01*
D64*
X143675000Y-115825000D02*
X145150000Y-114350000D01*
D61*
X146550000Y-112282500D02*
X147517500Y-112282500D01*
X142175000Y-115775000D02*
X143000000Y-114950000D01*
X147517500Y-112282500D02*
X147800000Y-112000000D01*
X142175000Y-116347500D02*
X142175000Y-115775000D01*
X140435000Y-115585000D02*
X140435000Y-115120000D01*
X140425000Y-115110000D02*
X140435000Y-115120000D01*
X140675000Y-115825000D02*
X140435000Y-115585000D01*
X140425000Y-114105000D02*
X140425000Y-115110000D01*
X140675000Y-116347500D02*
X140675000Y-115825000D01*
X153321492Y-119460589D02*
X154023812Y-118758269D01*
X151060589Y-119460589D02*
X152360589Y-119460589D01*
X150147500Y-118547500D02*
X151060589Y-119460589D01*
X144362500Y-118547500D02*
X150147500Y-118547500D01*
X152360589Y-119460589D02*
X153321492Y-119460589D01*
X151530589Y-116749411D02*
X152261178Y-116018822D01*
X154359097Y-116018822D02*
X154377366Y-116000553D01*
X152261178Y-116018822D02*
X154359097Y-116018822D01*
X150188124Y-118047500D02*
X150764965Y-117470659D01*
X144362500Y-118047500D02*
X150188124Y-118047500D01*
X139322500Y-120700000D02*
X138850000Y-120700000D01*
X139475000Y-120547500D02*
X139322500Y-120700000D01*
X134300000Y-120900000D02*
X133187500Y-120900000D01*
X134450000Y-121050000D02*
X134300000Y-120900000D01*
X138500000Y-121050000D02*
X134450000Y-121050000D01*
X138850000Y-120700000D02*
X138500000Y-121050000D01*
D66*
X158390000Y-112640000D02*
X157150000Y-111400000D01*
X157150000Y-111400000D02*
X150292965Y-111400000D01*
X149051041Y-112641924D02*
X149908094Y-111784871D01*
X163500000Y-112640000D02*
X158390000Y-112640000D01*
X150292965Y-111400000D02*
X149908094Y-111784871D01*
D67*
X149028823Y-112597345D02*
X149035894Y-112597345D01*
D64*
X118590000Y-115660000D02*
X115765000Y-118485000D01*
X115765000Y-118485000D02*
X112550000Y-118485000D01*
X120525000Y-115660000D02*
X118590000Y-115660000D01*
X116905000Y-113405000D02*
X112550000Y-113405000D01*
X120537500Y-115160000D02*
X118660000Y-115160000D01*
X118660000Y-115160000D02*
X116905000Y-113405000D01*
D61*
X146560000Y-109345000D02*
X146560000Y-110697500D01*
X146560000Y-110697500D02*
X146550000Y-110707500D01*
X141175000Y-116347500D02*
X141175000Y-115325000D01*
X141175000Y-115325000D02*
X141550000Y-114950000D01*
X141550000Y-114950000D02*
X141550000Y-114115000D01*
X136900000Y-120300000D02*
X136510000Y-120300000D01*
X139475000Y-119547500D02*
X137652500Y-119547500D01*
X137652500Y-119547500D02*
X136900000Y-120300000D01*
D64*
X116750000Y-126200000D02*
X116750000Y-127825000D01*
X116750000Y-127825000D02*
X114965000Y-129610000D01*
X114965000Y-129610000D02*
X112550000Y-129610000D01*
X118475000Y-124475000D02*
X116750000Y-126200000D01*
X120525000Y-124475000D02*
X118475000Y-124475000D01*
X113105000Y-123975000D02*
X112550000Y-124530000D01*
X120537500Y-123975000D02*
X113105000Y-123975000D01*
G04 #@! TA.AperFunction,Conductor*
G36*
X134443039Y-94119685D02*
G01*
X134488794Y-94172489D01*
X134500000Y-94224000D01*
X134500000Y-94300000D01*
X135576000Y-94300000D01*
X135643039Y-94319685D01*
X135688794Y-94372489D01*
X135700000Y-94424000D01*
X135700000Y-94500000D01*
X135700000Y-95600000D01*
X135850000Y-95600000D01*
X136050000Y-95600000D01*
X136126000Y-95600000D01*
X136193039Y-95619685D01*
X136238794Y-95672489D01*
X136250000Y-95724000D01*
X136250000Y-96676000D01*
X136230315Y-96743039D01*
X136177511Y-96788794D01*
X136126000Y-96800000D01*
X134299999Y-96800000D01*
X133700000Y-97399999D01*
X133700000Y-99726000D01*
X133680315Y-99793039D01*
X133627511Y-99838794D01*
X133576000Y-99850000D01*
X133400000Y-99850000D01*
X131900000Y-99850000D01*
X131674000Y-99850000D01*
X131606961Y-99830315D01*
X131561206Y-99777511D01*
X131550000Y-99726000D01*
X131550000Y-97024000D01*
X131569685Y-96956961D01*
X131622489Y-96911206D01*
X131674000Y-96900000D01*
X132600000Y-96900000D01*
X132800000Y-96700000D01*
X132800000Y-94850000D01*
X132800000Y-94700000D01*
X132800000Y-94300000D01*
X132800000Y-94224000D01*
X132819685Y-94156961D01*
X132872489Y-94111206D01*
X132924000Y-94100000D01*
X134376000Y-94100000D01*
X134443039Y-94119685D01*
G37*
G04 #@! TD.AperFunction*
G04 #@! TA.AperFunction,Conductor*
G36*
X132950000Y-107026000D02*
G01*
X132930315Y-107093039D01*
X132877511Y-107138794D01*
X132826000Y-107150000D01*
X131700000Y-107150000D01*
X131385887Y-107688480D01*
X131335104Y-107736469D01*
X131278778Y-107750000D01*
X129124000Y-107750000D01*
X129056961Y-107730315D01*
X129011206Y-107677511D01*
X129000000Y-107626000D01*
X129000000Y-106174000D01*
X129019685Y-106106961D01*
X129072489Y-106061206D01*
X129124000Y-106050000D01*
X131200000Y-106050000D01*
X131600000Y-105550000D01*
X132950000Y-105550000D01*
X132950000Y-107026000D01*
G37*
G04 #@! TD.AperFunction*
G04 #@! TA.AperFunction,Conductor*
G36*
X136093039Y-97869685D02*
G01*
X136138794Y-97922489D01*
X136150000Y-97974000D01*
X136150000Y-98948638D01*
X136130315Y-99015677D01*
X136113681Y-99036319D01*
X135950000Y-99199999D01*
X135950000Y-101098638D01*
X135930315Y-101165677D01*
X135913681Y-101186319D01*
X134986319Y-102113681D01*
X134924996Y-102147166D01*
X134898638Y-102150000D01*
X134299999Y-102150000D01*
X133750000Y-102699999D01*
X133750000Y-103681273D01*
X133730315Y-103748312D01*
X133691720Y-103786425D01*
X132950001Y-104249999D01*
X132950000Y-104249999D01*
X132950000Y-104250000D01*
X132950000Y-105350000D01*
X132950000Y-105550000D01*
X132050000Y-105550000D01*
X131600000Y-105550000D01*
X131600000Y-104150000D01*
X131600000Y-103800000D01*
X131600000Y-101250000D01*
X131600000Y-101074000D01*
X131619685Y-101006961D01*
X131672489Y-100961206D01*
X131724000Y-100950000D01*
X133950001Y-100950000D01*
X133950002Y-100949999D01*
X134293750Y-100652082D01*
X134700000Y-100300000D01*
X134700000Y-97974000D01*
X134719685Y-97906961D01*
X134772489Y-97861206D01*
X134824000Y-97850000D01*
X136026000Y-97850000D01*
X136093039Y-97869685D01*
G37*
G04 #@! TD.AperFunction*
M02*
