M48
; DRILL file {KiCad 7.0.8} date Tue 23 Jan 2024 10:35:50 PM CET
; FORMAT={-:-/ absolute / metric / decimal}
; #@! TF.CreationDate,2024-01-23T22:35:50+01:00
; #@! TF.GenerationSoftware,Kicad,Pcbnew,7.0.8
; #@! TF.FileFunction,MixedPlating,1,4
FMAT,2
METRIC
; #@! TA.AperFunction,Plated,PTH,ComponentDrill
T1C0.200
; #@! TA.AperFunction,Plated,PTH,ViaDrill
T2C0.250
; #@! TA.AperFunction,Plated,PTH,ViaDrill
T3C0.500
; #@! TA.AperFunction,Plated,PTH,ComponentDrill
T4C0.600
; #@! TA.AperFunction,Plated,PTH,ComponentDrill
T5C1.000
; #@! TA.AperFunction,Plated,PTH,ComponentDrill
T6C1.100
; #@! TA.AperFunction,Plated,PTH,ComponentDrill
T7C1.500
; #@! TA.AperFunction,Plated,PTH,ComponentDrill
T8C1.520
; #@! TA.AperFunction,Plated,PTH,ComponentDrill
T9C1.700
; #@! TA.AperFunction,NonPlated,NPTH,ComponentDrill
T10C0.650
%
G90
G05
T1
X121.61Y-115.545
X121.61Y-116.275
X121.61Y-124.36
X121.61Y-125.09
X122.34Y-115.545
X122.34Y-116.275
X122.34Y-124.36
X122.34Y-125.09
X139.39Y-103.315
X139.965Y-102.365
X139.965Y-104.265
X140.54Y-103.315
X140.625Y-117.497
X140.625Y-118.364
X140.625Y-119.231
X140.625Y-120.097
X141.492Y-117.497
X141.492Y-118.364
X141.492Y-119.231
X141.492Y-120.097
X142.358Y-117.497
X142.358Y-118.364
X142.358Y-119.231
X142.358Y-120.097
X143.225Y-117.497
X143.225Y-118.364
X143.225Y-119.231
X143.225Y-120.097
T2
X110.6Y-91.6
X110.6Y-93.0
X110.6Y-94.4
X110.8Y-107.6
X110.8Y-109.0
X110.8Y-110.4
X112.2Y-91.6
X112.2Y-93.0
X112.4Y-109.0
X112.4Y-110.4
X113.8Y-91.6
X113.8Y-93.0
X114.0Y-109.0
X114.0Y-110.4
X115.4Y-91.6
X115.4Y-93.0
X115.6Y-109.0
X115.6Y-110.4
X117.0Y-91.6
X117.0Y-93.0
X117.0Y-122.8
X117.2Y-107.6
X117.2Y-109.0
X117.2Y-110.4
X117.2Y-111.8
X118.6Y-91.6
X118.6Y-93.0
X118.6Y-94.4
X118.6Y-118.6
X118.6Y-120.0
X118.6Y-121.4
X118.6Y-122.8
X118.6Y-126.4
X118.6Y-127.8
X118.6Y-129.2
X118.6Y-130.6
X118.6Y-132.0
X118.8Y-107.6
X118.8Y-109.0
X118.8Y-110.4
X118.8Y-111.8
X118.8Y-113.2
X119.1Y-125.4
X119.8Y-120.0
X120.17Y-101.554
X120.2Y-118.6
X120.2Y-121.4
X120.2Y-122.8
X120.2Y-126.4
X120.2Y-127.8
X120.2Y-129.2
X120.2Y-130.6
X120.2Y-132.0
X120.4Y-91.6
X120.4Y-93.0
X120.4Y-94.4
X120.4Y-95.8
X120.4Y-97.2
X120.4Y-104.8
X120.4Y-106.2
X120.4Y-107.6
X120.4Y-109.0
X121.8Y-129.2
X121.8Y-130.6
X121.8Y-132.0
X122.0Y-91.6
X122.0Y-93.0
X122.0Y-94.4
X122.0Y-95.8
X122.0Y-97.2
X122.0Y-104.8
X122.0Y-106.2
X122.0Y-107.6
X122.0Y-109.0
X122.4Y-118.5
X123.4Y-129.2
X123.4Y-130.6
X123.4Y-132.0
X123.6Y-91.6
X123.6Y-93.0
X123.6Y-94.4
X123.6Y-95.8
X123.6Y-97.2
X123.6Y-98.55
X123.6Y-104.8
X123.6Y-106.2
X123.6Y-107.6
X123.6Y-109.0
X123.6Y-110.4
X124.5Y-101.6
X124.8Y-116.925
X125.0Y-120.0
X125.0Y-129.2
X125.0Y-130.6
X125.0Y-132.0
X125.2Y-91.6
X125.2Y-93.0
X125.2Y-94.4
X125.2Y-95.8
X125.2Y-97.2
X125.2Y-98.55
X125.2Y-106.2
X125.2Y-107.6
X125.2Y-109.0
X125.425Y-125.7
X125.625Y-117.475
X125.675Y-118.35
X125.7Y-100.4
X126.075Y-105.075
X126.575Y-125.75
X126.6Y-129.2
X126.6Y-130.6
X126.6Y-132.0
X126.8Y-94.4
X126.8Y-95.8
X126.8Y-97.2
X126.925Y-105.075
X127.3Y-126.3
X127.6Y-115.3
X127.975Y-125.75
X128.075Y-117.3
X128.1Y-118.325
X128.2Y-127.8
X128.2Y-129.2
X128.2Y-130.6
X128.2Y-132.0
X128.6Y-97.2
X128.8Y-122.4
X128.9Y-120.3
X129.0Y-115.3
X129.4Y-101.4
X129.4Y-102.8
X129.4Y-104.2
X129.6Y-119.2
X129.8Y-130.6
X129.8Y-132.0
X131.0Y-91.8
X131.025Y-118.75
X131.4Y-130.6
X131.4Y-132.0
X132.0Y-119.4
X133.0Y-130.6
X133.0Y-132.0
X133.0Y-114.2
X133.8Y-105.8
X134.2Y-121.8
X134.3Y-104.0
X134.4Y-114.2
X134.6Y-130.6
X134.6Y-132.0
X134.706Y-120.255
X135.2Y-92.8
X135.5Y-91.2
X135.65Y-105.35
X135.7Y-102.25
X135.8Y-114.2
X136.1Y-117.5
X136.2Y-130.6
X136.2Y-132.0
X136.269Y-105.95
X136.3Y-104.7
X136.725Y-92.825
X136.725Y-94.425
X136.75Y-91.2
X137.4Y-101.75
X137.5Y-121.65
X137.7Y-120.35
X137.8Y-130.6
X137.8Y-132.0
X137.874Y-112.9
X138.0Y-107.4
X138.0Y-108.8
X138.0Y-110.2
X138.3Y-114.1
X138.35Y-91.2
X138.785Y-123.497
X138.8Y-121.6
X138.85Y-101.5
X139.0Y-129.6
X139.2Y-114.1
X139.4Y-130.6
X139.4Y-132.0
X139.6Y-112.0
X140.85Y-101.5
X141.0Y-130.6
X141.0Y-132.0
X141.94Y-123.307
X142.2Y-114.8
X142.45Y-124.15
X142.45Y-125.35
X142.6Y-130.6
X142.6Y-132.0
X142.85Y-103.3
X143.0Y-97.4
X143.0Y-98.8
X143.0Y-114.95
X143.4Y-112.0
X143.8Y-125.35
X144.2Y-130.6
X144.2Y-132.0
X144.6Y-96.0
X144.6Y-97.4
X144.6Y-98.8
X144.7Y-124.15
X144.85Y-91.25
X144.9Y-100.95
X145.0Y-123.35
X145.2Y-102.6
X145.2Y-104.0
X145.2Y-113.4
X145.7Y-115.1
X145.793Y-119.209
X145.8Y-130.6
X145.8Y-132.0
X146.0Y-108.4
X146.2Y-96.0
X146.2Y-97.4
X146.45Y-91.25
X146.643Y-119.209
X147.4Y-102.6
X147.4Y-104.0
X147.4Y-106.4
X147.4Y-107.8
X147.4Y-130.6
X147.4Y-132.0
X147.55Y-99.4
X147.7Y-116.1
X147.7Y-117.2
X147.8Y-91.8
X147.8Y-93.2
X147.8Y-94.6
X147.8Y-96.0
X147.8Y-97.4
X147.8Y-112.0
X147.9Y-120.6
X148.45Y-110.2
X149.0Y-130.6
X149.0Y-132.0
X149.05Y-114.25
X149.1Y-108.4
X149.4Y-116.6
X149.6Y-106.4
X149.95Y-100.95
X150.4Y-98.55
X150.4Y-107.8
X150.4Y-120.6
X150.4Y-122.2
X150.4Y-123.6
X150.4Y-125.0
X150.4Y-126.4
X150.4Y-127.8
X150.4Y-129.2
X150.4Y-130.6
X150.4Y-132.0
X150.6Y-115.5
X150.75Y-105.15
X151.153Y-113.1
X151.8Y-114.4
X152.0Y-106.2
X152.0Y-107.8
X152.0Y-109.4
X152.0Y-120.6
X152.0Y-122.2
X152.0Y-123.6
X152.0Y-125.0
X152.0Y-126.4
X152.0Y-127.8
X152.0Y-129.2
X152.0Y-130.6
X152.0Y-132.0
X153.6Y-104.4
X153.6Y-106.2
X153.6Y-107.8
X153.6Y-109.4
X153.6Y-113.0
X153.6Y-122.2
X153.6Y-123.6
X153.6Y-125.0
X153.6Y-126.4
X153.6Y-127.8
X153.6Y-129.2
X153.6Y-130.6
X153.6Y-132.0
X153.601Y-114.679
X153.8Y-120.9
X155.2Y-104.4
X155.2Y-106.2
X155.2Y-107.8
X155.2Y-109.4
X155.2Y-113.0
X155.2Y-114.6
X155.2Y-120.6
X155.2Y-122.2
X155.2Y-123.6
X155.2Y-125.0
X155.2Y-126.4
X155.2Y-127.8
X155.2Y-129.2
X155.2Y-130.6
X155.2Y-132.0
X156.8Y-104.4
X156.8Y-106.2
X156.8Y-107.8
X156.8Y-109.4
X156.8Y-113.0
X156.8Y-114.6
X156.8Y-119.0
X156.8Y-120.6
X156.8Y-122.2
X156.8Y-123.6
X156.8Y-125.0
X156.8Y-126.4
X156.8Y-127.8
X156.8Y-129.2
X156.8Y-130.6
X156.8Y-132.0
X157.2Y-116.1
X158.4Y-104.4
X158.4Y-106.2
X158.4Y-107.8
X158.4Y-117.4
X158.4Y-119.0
X158.4Y-120.6
X158.4Y-122.2
X158.4Y-123.6
X158.4Y-125.0
X158.4Y-126.4
X158.4Y-127.8
X158.4Y-129.2
X158.4Y-130.6
X158.4Y-132.0
T3
X114.2Y-94.1
X114.3Y-107.9
X118.9Y-95.7
X118.9Y-97.5
X119.0Y-104.8
X119.0Y-106.4
X119.1Y-116.7
X120.9Y-111.1
X120.9Y-120.0
X122.0Y-120.0
X122.1Y-111.1
X125.1Y-113.0
X125.1Y-115.3
X126.3Y-124.0
X127.375Y-121.8
X128.7Y-93.7
X129.65Y-94.85
X130.6Y-129.4
X130.7Y-96.2
X134.0Y-118.1
X135.4Y-111.6
X136.8Y-129.4
X138.1Y-100.4
X138.8Y-99.6
X139.1Y-97.6
X139.5Y-109.6
X142.3Y-96.2
X144.7Y-106.2
X144.7Y-107.4
X144.7Y-109.7
X146.325Y-93.5
X147.9Y-123.1
X150.4Y-95.3
X151.5Y-118.5
X157.2Y-117.7
X158.7Y-109.6
X158.7Y-115.8
X160.2Y-117.6
X160.35Y-107.65
T5
X152.18Y-95.025
X152.18Y-101.275
X154.68Y-95.025
X157.18Y-95.025
X157.18Y-101.275
T6
X139.35Y-93.5
X143.95Y-93.5
T7
X163.5Y-112.64
T8
X112.55Y-113.405
X112.55Y-118.485
X112.55Y-124.53
X112.55Y-129.61
T9
X160.96Y-110.1
X160.96Y-115.18
X166.04Y-110.1
X166.04Y-115.18
T10
X114.305Y-98.155
X114.305Y-103.935
T4
X111.025Y-96.725G85X110.225Y-96.725
G05
X111.025Y-105.365G85X110.225Y-105.365
G05
X115.355Y-96.725G85X114.255Y-96.725
G05
X115.355Y-105.365G85X114.255Y-105.365
G05
T0
M30
