G04 #@! TF.GenerationSoftware,KiCad,Pcbnew,7.0.8*
G04 #@! TF.CreationDate,2024-01-23T22:35:07+01:00*
G04 #@! TF.ProjectId,internet-radio-speaker,696e7465-726e-4657-942d-726164696f2d,rev?*
G04 #@! TF.SameCoordinates,Original*
G04 #@! TF.FileFunction,Profile,NP*
%FSLAX46Y46*%
G04 Gerber Fmt 4.6, Leading zero omitted, Abs format (unit mm)*
G04 Created by KiCad (PCBNEW 7.0.8) date 2024-01-23 22:35:07*
%MOMM*%
%LPD*%
G01*
G04 APERTURE LIST*
G04 #@! TA.AperFunction,Profile*
%ADD10C,0.100000*%
G04 #@! TD*
G04 APERTURE END LIST*
D10*
X108000000Y-91000000D02*
X108000000Y-133000000D01*
X167000000Y-118200000D02*
G75*
G03*
X168000000Y-117200000I0J1000000D01*
G01*
X161000000Y-91000000D02*
X161000000Y-106000000D01*
X161000000Y-133000000D02*
X161000000Y-119207107D01*
X168000000Y-116940000D02*
X168000000Y-117192893D01*
X160000000Y-134000000D02*
G75*
G03*
X161000000Y-133000000I0J1000000D01*
G01*
X109000000Y-134000000D02*
X160000000Y-134000000D01*
X108000000Y-133000000D02*
G75*
G03*
X109000000Y-134000000I1000000J0D01*
G01*
X168000000Y-108340000D02*
X168000000Y-108000000D01*
X162000000Y-107000000D02*
X167000000Y-107000000D01*
X162000000Y-118207100D02*
G75*
G03*
X161000000Y-119207107I0J-1000000D01*
G01*
X161000000Y-106000000D02*
G75*
G03*
X162000000Y-107000000I1000000J0D01*
G01*
X168000000Y-108000000D02*
G75*
G03*
X167000000Y-107000000I-1000000J0D01*
G01*
X160000000Y-90000000D02*
X159880000Y-89999700D01*
X161000000Y-91000000D02*
G75*
G03*
X160000000Y-90000000I-1000000J0D01*
G01*
X162000000Y-118200000D02*
X167000000Y-118200000D01*
X149480000Y-89999700D02*
X109000000Y-90000000D01*
X109000000Y-90000000D02*
G75*
G03*
X108000000Y-91000000I0J-1000000D01*
G01*
X159880000Y-89999700D02*
X149480000Y-89999700D01*
X168000000Y-116940000D02*
X168000000Y-108340000D01*
M02*
