G04 #@! TF.GenerationSoftware,KiCad,Pcbnew,7.0.8*
G04 #@! TF.CreationDate,2024-01-23T22:35:07+01:00*
G04 #@! TF.ProjectId,internet-radio-speaker,696e7465-726e-4657-942d-726164696f2d,rev?*
G04 #@! TF.SameCoordinates,Original*
G04 #@! TF.FileFunction,Legend,Top*
G04 #@! TF.FilePolarity,Positive*
%FSLAX46Y46*%
G04 Gerber Fmt 4.6, Leading zero omitted, Abs format (unit mm)*
G04 Created by KiCad (PCBNEW 7.0.8) date 2024-01-23 22:35:07*
%MOMM*%
%LPD*%
G01*
G04 APERTURE LIST*
G04 Aperture macros list*
%AMRoundRect*
0 Rectangle with rounded corners*
0 $1 Rounding radius*
0 $2 $3 $4 $5 $6 $7 $8 $9 X,Y pos of 4 corners*
0 Add a 4 corners polygon primitive as box body*
4,1,4,$2,$3,$4,$5,$6,$7,$8,$9,$2,$3,0*
0 Add four circle primitives for the rounded corners*
1,1,$1+$1,$2,$3*
1,1,$1+$1,$4,$5*
1,1,$1+$1,$6,$7*
1,1,$1+$1,$8,$9*
0 Add four rect primitives between the rounded corners*
20,1,$1+$1,$2,$3,$4,$5,0*
20,1,$1+$1,$4,$5,$6,$7,0*
20,1,$1+$1,$6,$7,$8,$9,0*
20,1,$1+$1,$8,$9,$2,$3,0*%
%AMRotRect*
0 Rectangle, with rotation*
0 The origin of the aperture is its center*
0 $1 length*
0 $2 width*
0 $3 Rotation angle, in degrees counterclockwise*
0 Add horizontal line*
21,1,$1,$2,0,0,$3*%
%AMFreePoly0*
4,1,21,-0.125000,1.200000,0.125000,1.200000,0.125000,1.700000,0.375000,1.700000,0.375000,1.200000,0.825000,1.200000,0.825000,-1.200000,0.375000,-1.200000,0.375000,-1.700000,0.125000,-1.700000,0.125000,-1.200000,-0.125000,-1.200000,-0.125000,-1.700000,-0.375000,-1.700000,-0.375000,-1.200000,-0.825000,-1.200000,-0.825000,1.200000,-0.375000,1.200000,-0.375000,1.700000,-0.125000,1.700000,
-0.125000,1.200000,-0.125000,1.200000,$1*%
G04 Aperture macros list end*
%ADD10C,0.150000*%
%ADD11C,0.100000*%
%ADD12C,0.125000*%
%ADD13C,0.200000*%
%ADD14C,0.120000*%
%ADD15R,1.200000X0.650000*%
%ADD16R,3.000000X3.000000*%
%ADD17C,3.000000*%
%ADD18RoundRect,0.135000X-0.135000X-0.185000X0.135000X-0.185000X0.135000X0.185000X-0.135000X0.185000X0*%
%ADD19RoundRect,0.135000X0.185000X-0.135000X0.185000X0.135000X-0.185000X0.135000X-0.185000X-0.135000X0*%
%ADD20RoundRect,0.225000X-0.250000X0.225000X-0.250000X-0.225000X0.250000X-0.225000X0.250000X0.225000X0*%
%ADD21RoundRect,0.140000X0.140000X0.170000X-0.140000X0.170000X-0.140000X-0.170000X0.140000X-0.170000X0*%
%ADD22RoundRect,0.135000X0.135000X0.185000X-0.135000X0.185000X-0.135000X-0.185000X0.135000X-0.185000X0*%
%ADD23RoundRect,0.140000X0.170000X-0.140000X0.170000X0.140000X-0.170000X0.140000X-0.170000X-0.140000X0*%
%ADD24RoundRect,0.140000X-0.140000X-0.170000X0.140000X-0.170000X0.140000X0.170000X-0.140000X0.170000X0*%
%ADD25C,0.650000*%
%ADD26RoundRect,0.150000X-0.425000X0.150000X-0.425000X-0.150000X0.425000X-0.150000X0.425000X0.150000X0*%
%ADD27RoundRect,0.075000X-0.500000X0.075000X-0.500000X-0.075000X0.500000X-0.075000X0.500000X0.075000X0*%
%ADD28O,2.100000X1.000000*%
%ADD29O,1.800000X1.000000*%
%ADD30RoundRect,0.135000X0.035355X-0.226274X0.226274X-0.035355X-0.035355X0.226274X-0.226274X0.035355X0*%
%ADD31R,0.600000X0.240000*%
%ADD32FreePoly0,180.000000*%
%ADD33RotRect,1.400000X1.200000X225.000000*%
%ADD34RoundRect,0.062500X-0.062500X0.375000X-0.062500X-0.375000X0.062500X-0.375000X0.062500X0.375000X0*%
%ADD35RoundRect,0.062500X-0.375000X0.062500X-0.375000X-0.062500X0.375000X-0.062500X0.375000X0.062500X0*%
%ADD36R,3.100000X3.100000*%
%ADD37RoundRect,0.135000X-0.185000X0.135000X-0.185000X-0.135000X0.185000X-0.135000X0.185000X0.135000X0*%
%ADD38RoundRect,0.225000X-0.225000X-0.250000X0.225000X-0.250000X0.225000X0.250000X-0.225000X0.250000X0*%
%ADD39R,1.800000X1.100000*%
%ADD40RoundRect,0.250000X-0.850000X0.375000X-0.850000X-0.375000X0.850000X-0.375000X0.850000X0.375000X0*%
%ADD41RoundRect,0.150000X0.650000X0.150000X-0.650000X0.150000X-0.650000X-0.150000X0.650000X-0.150000X0*%
%ADD42RoundRect,0.147500X-0.172500X0.147500X-0.172500X-0.147500X0.172500X-0.147500X0.172500X0.147500X0*%
%ADD43RoundRect,0.140000X-0.219203X-0.021213X-0.021213X-0.219203X0.219203X0.021213X0.021213X0.219203X0*%
%ADD44R,0.600000X0.900000*%
%ADD45RoundRect,0.250001X-0.799999X-0.799999X0.799999X-0.799999X0.799999X0.799999X-0.799999X0.799999X0*%
%ADD46C,2.100000*%
%ADD47RoundRect,0.140000X0.021213X-0.219203X0.219203X-0.021213X-0.021213X0.219203X-0.219203X0.021213X0*%
%ADD48RoundRect,0.218750X-0.256250X0.218750X-0.256250X-0.218750X0.256250X-0.218750X0.256250X0.218750X0*%
%ADD49RoundRect,0.225000X0.225000X0.250000X-0.225000X0.250000X-0.225000X-0.250000X0.225000X-0.250000X0*%
%ADD50RoundRect,0.218750X-0.218750X-0.256250X0.218750X-0.256250X0.218750X0.256250X-0.218750X0.256250X0*%
%ADD51RoundRect,0.250000X0.650000X-1.000000X0.650000X1.000000X-0.650000X1.000000X-0.650000X-1.000000X0*%
%ADD52RoundRect,0.150000X-0.512500X-0.150000X0.512500X-0.150000X0.512500X0.150000X-0.512500X0.150000X0*%
%ADD53RoundRect,0.218750X0.381250X-0.218750X0.381250X0.218750X-0.381250X0.218750X-0.381250X-0.218750X0*%
%ADD54C,1.800000*%
%ADD55RoundRect,0.450000X0.450000X-0.450000X0.450000X0.450000X-0.450000X0.450000X-0.450000X-0.450000X0*%
%ADD56RoundRect,0.218750X0.218750X0.256250X-0.218750X0.256250X-0.218750X-0.256250X0.218750X-0.256250X0*%
%ADD57RoundRect,0.140000X-0.170000X0.140000X-0.170000X-0.140000X0.170000X-0.140000X0.170000X0.140000X0*%
%ADD58RoundRect,0.062500X0.350000X0.062500X-0.350000X0.062500X-0.350000X-0.062500X0.350000X-0.062500X0*%
%ADD59RoundRect,0.062500X0.062500X0.350000X-0.062500X0.350000X-0.062500X-0.350000X0.062500X-0.350000X0*%
%ADD60R,1.230000X1.230000*%
%ADD61C,2.500000*%
%ADD62RoundRect,0.200100X-0.949900X0.949900X-0.949900X-0.949900X0.949900X-0.949900X0.949900X0.949900X0*%
%ADD63RoundRect,0.147500X0.017678X-0.226274X0.226274X-0.017678X-0.017678X0.226274X-0.226274X0.017678X0*%
G04 APERTURE END LIST*
D10*
X143770711Y-115450000D02*
G75*
G03*
X143770711Y-115450000I-70711J0D01*
G01*
X120220711Y-100300000D02*
G75*
G03*
X120220711Y-100300000I-70711J0D01*
G01*
X123850000Y-117100000D02*
G75*
G03*
X123850000Y-117100000I-50000J0D01*
G01*
X149670711Y-127950000D02*
G75*
G03*
X149670711Y-127950000I-70711J0D01*
G01*
X123850000Y-126000000D02*
G75*
G03*
X123850000Y-126000000I-50000J0D01*
G01*
X142270711Y-104400000D02*
G75*
G03*
X142270711Y-104400000I-70711J0D01*
G01*
D11*
X158909800Y-115088972D02*
X158933609Y-115017544D01*
X158933609Y-115017544D02*
X158933609Y-114898496D01*
X158933609Y-114898496D02*
X158909800Y-114850877D01*
X158909800Y-114850877D02*
X158885990Y-114827068D01*
X158885990Y-114827068D02*
X158838371Y-114803258D01*
X158838371Y-114803258D02*
X158790752Y-114803258D01*
X158790752Y-114803258D02*
X158743133Y-114827068D01*
X158743133Y-114827068D02*
X158719323Y-114850877D01*
X158719323Y-114850877D02*
X158695514Y-114898496D01*
X158695514Y-114898496D02*
X158671704Y-114993734D01*
X158671704Y-114993734D02*
X158647895Y-115041353D01*
X158647895Y-115041353D02*
X158624085Y-115065163D01*
X158624085Y-115065163D02*
X158576466Y-115088972D01*
X158576466Y-115088972D02*
X158528847Y-115088972D01*
X158528847Y-115088972D02*
X158481228Y-115065163D01*
X158481228Y-115065163D02*
X158457419Y-115041353D01*
X158457419Y-115041353D02*
X158433609Y-114993734D01*
X158433609Y-114993734D02*
X158433609Y-114874687D01*
X158433609Y-114874687D02*
X158457419Y-114803258D01*
X158933609Y-114588973D02*
X158433609Y-114588973D01*
X158433609Y-114588973D02*
X158790752Y-114422306D01*
X158790752Y-114422306D02*
X158433609Y-114255640D01*
X158433609Y-114255640D02*
X158933609Y-114255640D01*
X158790752Y-114041353D02*
X158790752Y-113803258D01*
X158933609Y-114088972D02*
X158433609Y-113922306D01*
X158433609Y-113922306D02*
X158933609Y-113755639D01*
X158790752Y-113231830D02*
X158790752Y-112993735D01*
X158933609Y-113279449D02*
X158433609Y-113112783D01*
X158433609Y-113112783D02*
X158933609Y-112946116D01*
X158933609Y-112779450D02*
X158433609Y-112779450D01*
X158433609Y-112779450D02*
X158933609Y-112493736D01*
X158933609Y-112493736D02*
X158433609Y-112493736D01*
X158433609Y-112327068D02*
X158433609Y-112041354D01*
X158933609Y-112184211D02*
X158433609Y-112184211D01*
X158671704Y-111874688D02*
X158671704Y-111708021D01*
X158933609Y-111636593D02*
X158933609Y-111874688D01*
X158933609Y-111874688D02*
X158433609Y-111874688D01*
X158433609Y-111874688D02*
X158433609Y-111636593D01*
X158933609Y-111422307D02*
X158433609Y-111422307D01*
X158433609Y-111422307D02*
X158933609Y-111136593D01*
X158933609Y-111136593D02*
X158433609Y-111136593D01*
X158933609Y-110898497D02*
X158433609Y-110898497D01*
X158433609Y-110898497D02*
X158933609Y-110612783D01*
X158933609Y-110612783D02*
X158433609Y-110612783D01*
X158790752Y-110398496D02*
X158790752Y-110160401D01*
X158933609Y-110446115D02*
X158433609Y-110279449D01*
X158433609Y-110279449D02*
X158933609Y-110112782D01*
D12*
X139710807Y-91216000D02*
X140282236Y-91216000D01*
X139996521Y-91501714D02*
X139996521Y-90930285D01*
X117501714Y-131660621D02*
X117144571Y-131910621D01*
X117501714Y-132089192D02*
X116751714Y-132089192D01*
X116751714Y-132089192D02*
X116751714Y-131803478D01*
X116751714Y-131803478D02*
X116787428Y-131732049D01*
X116787428Y-131732049D02*
X116823142Y-131696335D01*
X116823142Y-131696335D02*
X116894571Y-131660621D01*
X116894571Y-131660621D02*
X117001714Y-131660621D01*
X117001714Y-131660621D02*
X117073142Y-131696335D01*
X117073142Y-131696335D02*
X117108857Y-131732049D01*
X117108857Y-131732049D02*
X117144571Y-131803478D01*
X117144571Y-131803478D02*
X117144571Y-132089192D01*
X117573142Y-131517764D02*
X117573142Y-130946335D01*
X117466000Y-130803477D02*
X117501714Y-130696335D01*
X117501714Y-130696335D02*
X117501714Y-130517763D01*
X117501714Y-130517763D02*
X117466000Y-130446335D01*
X117466000Y-130446335D02*
X117430285Y-130410620D01*
X117430285Y-130410620D02*
X117358857Y-130374906D01*
X117358857Y-130374906D02*
X117287428Y-130374906D01*
X117287428Y-130374906D02*
X117216000Y-130410620D01*
X117216000Y-130410620D02*
X117180285Y-130446335D01*
X117180285Y-130446335D02*
X117144571Y-130517763D01*
X117144571Y-130517763D02*
X117108857Y-130660620D01*
X117108857Y-130660620D02*
X117073142Y-130732049D01*
X117073142Y-130732049D02*
X117037428Y-130767763D01*
X117037428Y-130767763D02*
X116966000Y-130803477D01*
X116966000Y-130803477D02*
X116894571Y-130803477D01*
X116894571Y-130803477D02*
X116823142Y-130767763D01*
X116823142Y-130767763D02*
X116787428Y-130732049D01*
X116787428Y-130732049D02*
X116751714Y-130660620D01*
X116751714Y-130660620D02*
X116751714Y-130482049D01*
X116751714Y-130482049D02*
X116787428Y-130374906D01*
X117501714Y-130053477D02*
X116751714Y-130053477D01*
X116751714Y-130053477D02*
X116751714Y-129767763D01*
X116751714Y-129767763D02*
X116787428Y-129696334D01*
X116787428Y-129696334D02*
X116823142Y-129660620D01*
X116823142Y-129660620D02*
X116894571Y-129624906D01*
X116894571Y-129624906D02*
X117001714Y-129624906D01*
X117001714Y-129624906D02*
X117073142Y-129660620D01*
X117073142Y-129660620D02*
X117108857Y-129696334D01*
X117108857Y-129696334D02*
X117144571Y-129767763D01*
X117144571Y-129767763D02*
X117144571Y-130053477D01*
X117108857Y-129303477D02*
X117108857Y-129053477D01*
X117501714Y-128946334D02*
X117501714Y-129303477D01*
X117501714Y-129303477D02*
X116751714Y-129303477D01*
X116751714Y-129303477D02*
X116751714Y-128946334D01*
X117287428Y-128660620D02*
X117287428Y-128303478D01*
X117501714Y-128732049D02*
X116751714Y-128482049D01*
X116751714Y-128482049D02*
X117501714Y-128232049D01*
X117501714Y-127982049D02*
X116751714Y-127982049D01*
X117501714Y-127553478D02*
X117073142Y-127874906D01*
X116751714Y-127553478D02*
X117180285Y-127982049D01*
X117108857Y-127232049D02*
X117108857Y-126982049D01*
X117501714Y-126874906D02*
X117501714Y-127232049D01*
X117501714Y-127232049D02*
X116751714Y-127232049D01*
X116751714Y-127232049D02*
X116751714Y-126874906D01*
X117501714Y-126124907D02*
X117144571Y-126374907D01*
X117501714Y-126553478D02*
X116751714Y-126553478D01*
X116751714Y-126553478D02*
X116751714Y-126267764D01*
X116751714Y-126267764D02*
X116787428Y-126196335D01*
X116787428Y-126196335D02*
X116823142Y-126160621D01*
X116823142Y-126160621D02*
X116894571Y-126124907D01*
X116894571Y-126124907D02*
X117001714Y-126124907D01*
X117001714Y-126124907D02*
X117073142Y-126160621D01*
X117073142Y-126160621D02*
X117108857Y-126196335D01*
X117108857Y-126196335D02*
X117144571Y-126267764D01*
X117144571Y-126267764D02*
X117144571Y-126553478D01*
X109760807Y-129516000D02*
X110332236Y-129516000D01*
X148451714Y-103346335D02*
X149201714Y-103096335D01*
X149201714Y-103096335D02*
X148451714Y-102846335D01*
X148451714Y-102453478D02*
X148451714Y-102310621D01*
X148451714Y-102310621D02*
X148487428Y-102239192D01*
X148487428Y-102239192D02*
X148558857Y-102167764D01*
X148558857Y-102167764D02*
X148701714Y-102132049D01*
X148701714Y-102132049D02*
X148951714Y-102132049D01*
X148951714Y-102132049D02*
X149094571Y-102167764D01*
X149094571Y-102167764D02*
X149166000Y-102239192D01*
X149166000Y-102239192D02*
X149201714Y-102310621D01*
X149201714Y-102310621D02*
X149201714Y-102453478D01*
X149201714Y-102453478D02*
X149166000Y-102524907D01*
X149166000Y-102524907D02*
X149094571Y-102596335D01*
X149094571Y-102596335D02*
X148951714Y-102632049D01*
X148951714Y-102632049D02*
X148701714Y-102632049D01*
X148701714Y-102632049D02*
X148558857Y-102596335D01*
X148558857Y-102596335D02*
X148487428Y-102524907D01*
X148487428Y-102524907D02*
X148451714Y-102453478D01*
X149201714Y-101453478D02*
X149201714Y-101810621D01*
X149201714Y-101810621D02*
X148451714Y-101810621D01*
X148451714Y-101203478D02*
X149058857Y-101203478D01*
X149058857Y-101203478D02*
X149130285Y-101167764D01*
X149130285Y-101167764D02*
X149166000Y-101132050D01*
X149166000Y-101132050D02*
X149201714Y-101060621D01*
X149201714Y-101060621D02*
X149201714Y-100917764D01*
X149201714Y-100917764D02*
X149166000Y-100846335D01*
X149166000Y-100846335D02*
X149130285Y-100810621D01*
X149130285Y-100810621D02*
X149058857Y-100774907D01*
X149058857Y-100774907D02*
X148451714Y-100774907D01*
X149201714Y-100417764D02*
X148451714Y-100417764D01*
X148451714Y-100417764D02*
X148987428Y-100167764D01*
X148987428Y-100167764D02*
X148451714Y-99917764D01*
X148451714Y-99917764D02*
X149201714Y-99917764D01*
X148808857Y-99560621D02*
X148808857Y-99310621D01*
X149201714Y-99203478D02*
X149201714Y-99560621D01*
X149201714Y-99560621D02*
X148451714Y-99560621D01*
X148451714Y-99560621D02*
X148451714Y-99203478D01*
X148416000Y-97774907D02*
X149380285Y-98417764D01*
X149201714Y-96953478D02*
X148451714Y-96953478D01*
X148451714Y-96953478D02*
X148451714Y-96667764D01*
X148451714Y-96667764D02*
X148487428Y-96596335D01*
X148487428Y-96596335D02*
X148523142Y-96560621D01*
X148523142Y-96560621D02*
X148594571Y-96524907D01*
X148594571Y-96524907D02*
X148701714Y-96524907D01*
X148701714Y-96524907D02*
X148773142Y-96560621D01*
X148773142Y-96560621D02*
X148808857Y-96596335D01*
X148808857Y-96596335D02*
X148844571Y-96667764D01*
X148844571Y-96667764D02*
X148844571Y-96953478D01*
X148451714Y-96060621D02*
X148451714Y-95917764D01*
X148451714Y-95917764D02*
X148487428Y-95846335D01*
X148487428Y-95846335D02*
X148558857Y-95774907D01*
X148558857Y-95774907D02*
X148701714Y-95739192D01*
X148701714Y-95739192D02*
X148951714Y-95739192D01*
X148951714Y-95739192D02*
X149094571Y-95774907D01*
X149094571Y-95774907D02*
X149166000Y-95846335D01*
X149166000Y-95846335D02*
X149201714Y-95917764D01*
X149201714Y-95917764D02*
X149201714Y-96060621D01*
X149201714Y-96060621D02*
X149166000Y-96132050D01*
X149166000Y-96132050D02*
X149094571Y-96203478D01*
X149094571Y-96203478D02*
X148951714Y-96239192D01*
X148951714Y-96239192D02*
X148701714Y-96239192D01*
X148701714Y-96239192D02*
X148558857Y-96203478D01*
X148558857Y-96203478D02*
X148487428Y-96132050D01*
X148487428Y-96132050D02*
X148451714Y-96060621D01*
X148451714Y-95489193D02*
X149201714Y-95310621D01*
X149201714Y-95310621D02*
X148666000Y-95167764D01*
X148666000Y-95167764D02*
X149201714Y-95024907D01*
X149201714Y-95024907D02*
X148451714Y-94846336D01*
X148808857Y-94560621D02*
X148808857Y-94310621D01*
X149201714Y-94203478D02*
X149201714Y-94560621D01*
X149201714Y-94560621D02*
X148451714Y-94560621D01*
X148451714Y-94560621D02*
X148451714Y-94203478D01*
X149201714Y-93453479D02*
X148844571Y-93703479D01*
X149201714Y-93882050D02*
X148451714Y-93882050D01*
X148451714Y-93882050D02*
X148451714Y-93596336D01*
X148451714Y-93596336D02*
X148487428Y-93524907D01*
X148487428Y-93524907D02*
X148523142Y-93489193D01*
X148523142Y-93489193D02*
X148594571Y-93453479D01*
X148594571Y-93453479D02*
X148701714Y-93453479D01*
X148701714Y-93453479D02*
X148773142Y-93489193D01*
X148773142Y-93489193D02*
X148808857Y-93524907D01*
X148808857Y-93524907D02*
X148844571Y-93596336D01*
X148844571Y-93596336D02*
X148844571Y-93882050D01*
X149166000Y-92596335D02*
X149201714Y-92489193D01*
X149201714Y-92489193D02*
X149201714Y-92310621D01*
X149201714Y-92310621D02*
X149166000Y-92239193D01*
X149166000Y-92239193D02*
X149130285Y-92203478D01*
X149130285Y-92203478D02*
X149058857Y-92167764D01*
X149058857Y-92167764D02*
X148987428Y-92167764D01*
X148987428Y-92167764D02*
X148916000Y-92203478D01*
X148916000Y-92203478D02*
X148880285Y-92239193D01*
X148880285Y-92239193D02*
X148844571Y-92310621D01*
X148844571Y-92310621D02*
X148808857Y-92453478D01*
X148808857Y-92453478D02*
X148773142Y-92524907D01*
X148773142Y-92524907D02*
X148737428Y-92560621D01*
X148737428Y-92560621D02*
X148666000Y-92596335D01*
X148666000Y-92596335D02*
X148594571Y-92596335D01*
X148594571Y-92596335D02*
X148523142Y-92560621D01*
X148523142Y-92560621D02*
X148487428Y-92524907D01*
X148487428Y-92524907D02*
X148451714Y-92453478D01*
X148451714Y-92453478D02*
X148451714Y-92274907D01*
X148451714Y-92274907D02*
X148487428Y-92167764D01*
X148451714Y-91917764D02*
X149201714Y-91739192D01*
X149201714Y-91739192D02*
X148666000Y-91596335D01*
X148666000Y-91596335D02*
X149201714Y-91453478D01*
X149201714Y-91453478D02*
X148451714Y-91274907D01*
X109760807Y-124516000D02*
X110332236Y-124516000D01*
X110046521Y-124801714D02*
X110046521Y-124230285D01*
X141910807Y-91158857D02*
X142017950Y-91194571D01*
X142017950Y-91194571D02*
X142053664Y-91230285D01*
X142053664Y-91230285D02*
X142089378Y-91301714D01*
X142089378Y-91301714D02*
X142089378Y-91408857D01*
X142089378Y-91408857D02*
X142053664Y-91480285D01*
X142053664Y-91480285D02*
X142017950Y-91516000D01*
X142017950Y-91516000D02*
X141946521Y-91551714D01*
X141946521Y-91551714D02*
X141660807Y-91551714D01*
X141660807Y-91551714D02*
X141660807Y-90801714D01*
X141660807Y-90801714D02*
X141910807Y-90801714D01*
X141910807Y-90801714D02*
X141982236Y-90837428D01*
X141982236Y-90837428D02*
X142017950Y-90873142D01*
X142017950Y-90873142D02*
X142053664Y-90944571D01*
X142053664Y-90944571D02*
X142053664Y-91016000D01*
X142053664Y-91016000D02*
X142017950Y-91087428D01*
X142017950Y-91087428D02*
X141982236Y-91123142D01*
X141982236Y-91123142D02*
X141910807Y-91158857D01*
X141910807Y-91158857D02*
X141660807Y-91158857D01*
X142375093Y-91337428D02*
X142732236Y-91337428D01*
X142303664Y-91551714D02*
X142553664Y-90801714D01*
X142553664Y-90801714D02*
X142803664Y-91551714D01*
X142946521Y-90801714D02*
X143375093Y-90801714D01*
X143160807Y-91551714D02*
X143160807Y-90801714D01*
X109760807Y-113516000D02*
X110332236Y-113516000D01*
X110046521Y-113801714D02*
X110046521Y-113230285D01*
X131410807Y-122708857D02*
X131517950Y-122744571D01*
X131517950Y-122744571D02*
X131553664Y-122780285D01*
X131553664Y-122780285D02*
X131589378Y-122851714D01*
X131589378Y-122851714D02*
X131589378Y-122958857D01*
X131589378Y-122958857D02*
X131553664Y-123030285D01*
X131553664Y-123030285D02*
X131517950Y-123066000D01*
X131517950Y-123066000D02*
X131446521Y-123101714D01*
X131446521Y-123101714D02*
X131160807Y-123101714D01*
X131160807Y-123101714D02*
X131160807Y-122351714D01*
X131160807Y-122351714D02*
X131410807Y-122351714D01*
X131410807Y-122351714D02*
X131482236Y-122387428D01*
X131482236Y-122387428D02*
X131517950Y-122423142D01*
X131517950Y-122423142D02*
X131553664Y-122494571D01*
X131553664Y-122494571D02*
X131553664Y-122566000D01*
X131553664Y-122566000D02*
X131517950Y-122637428D01*
X131517950Y-122637428D02*
X131482236Y-122673142D01*
X131482236Y-122673142D02*
X131410807Y-122708857D01*
X131410807Y-122708857D02*
X131160807Y-122708857D01*
X132053664Y-122351714D02*
X132196521Y-122351714D01*
X132196521Y-122351714D02*
X132267950Y-122387428D01*
X132267950Y-122387428D02*
X132339378Y-122458857D01*
X132339378Y-122458857D02*
X132375093Y-122601714D01*
X132375093Y-122601714D02*
X132375093Y-122851714D01*
X132375093Y-122851714D02*
X132339378Y-122994571D01*
X132339378Y-122994571D02*
X132267950Y-123066000D01*
X132267950Y-123066000D02*
X132196521Y-123101714D01*
X132196521Y-123101714D02*
X132053664Y-123101714D01*
X132053664Y-123101714D02*
X131982236Y-123066000D01*
X131982236Y-123066000D02*
X131910807Y-122994571D01*
X131910807Y-122994571D02*
X131875093Y-122851714D01*
X131875093Y-122851714D02*
X131875093Y-122601714D01*
X131875093Y-122601714D02*
X131910807Y-122458857D01*
X131910807Y-122458857D02*
X131982236Y-122387428D01*
X131982236Y-122387428D02*
X132053664Y-122351714D01*
X132839378Y-122351714D02*
X132982235Y-122351714D01*
X132982235Y-122351714D02*
X133053664Y-122387428D01*
X133053664Y-122387428D02*
X133125092Y-122458857D01*
X133125092Y-122458857D02*
X133160807Y-122601714D01*
X133160807Y-122601714D02*
X133160807Y-122851714D01*
X133160807Y-122851714D02*
X133125092Y-122994571D01*
X133125092Y-122994571D02*
X133053664Y-123066000D01*
X133053664Y-123066000D02*
X132982235Y-123101714D01*
X132982235Y-123101714D02*
X132839378Y-123101714D01*
X132839378Y-123101714D02*
X132767950Y-123066000D01*
X132767950Y-123066000D02*
X132696521Y-122994571D01*
X132696521Y-122994571D02*
X132660807Y-122851714D01*
X132660807Y-122851714D02*
X132660807Y-122601714D01*
X132660807Y-122601714D02*
X132696521Y-122458857D01*
X132696521Y-122458857D02*
X132767950Y-122387428D01*
X132767950Y-122387428D02*
X132839378Y-122351714D01*
X133375092Y-122351714D02*
X133803664Y-122351714D01*
X133589378Y-123101714D02*
X133589378Y-122351714D01*
X134589379Y-123066000D02*
X134696522Y-123101714D01*
X134696522Y-123101714D02*
X134875093Y-123101714D01*
X134875093Y-123101714D02*
X134946522Y-123066000D01*
X134946522Y-123066000D02*
X134982236Y-123030285D01*
X134982236Y-123030285D02*
X135017950Y-122958857D01*
X135017950Y-122958857D02*
X135017950Y-122887428D01*
X135017950Y-122887428D02*
X134982236Y-122816000D01*
X134982236Y-122816000D02*
X134946522Y-122780285D01*
X134946522Y-122780285D02*
X134875093Y-122744571D01*
X134875093Y-122744571D02*
X134732236Y-122708857D01*
X134732236Y-122708857D02*
X134660807Y-122673142D01*
X134660807Y-122673142D02*
X134625093Y-122637428D01*
X134625093Y-122637428D02*
X134589379Y-122566000D01*
X134589379Y-122566000D02*
X134589379Y-122494571D01*
X134589379Y-122494571D02*
X134625093Y-122423142D01*
X134625093Y-122423142D02*
X134660807Y-122387428D01*
X134660807Y-122387428D02*
X134732236Y-122351714D01*
X134732236Y-122351714D02*
X134910807Y-122351714D01*
X134910807Y-122351714D02*
X135017950Y-122387428D01*
X135267950Y-122351714D02*
X135446522Y-123101714D01*
X135446522Y-123101714D02*
X135589379Y-122566000D01*
X135589379Y-122566000D02*
X135732236Y-123101714D01*
X135732236Y-123101714D02*
X135910808Y-122351714D01*
X117501714Y-120632049D02*
X117501714Y-120989192D01*
X117501714Y-120989192D02*
X116751714Y-120989192D01*
X117573142Y-120560621D02*
X117573142Y-119989192D01*
X117466000Y-119846334D02*
X117501714Y-119739192D01*
X117501714Y-119739192D02*
X117501714Y-119560620D01*
X117501714Y-119560620D02*
X117466000Y-119489192D01*
X117466000Y-119489192D02*
X117430285Y-119453477D01*
X117430285Y-119453477D02*
X117358857Y-119417763D01*
X117358857Y-119417763D02*
X117287428Y-119417763D01*
X117287428Y-119417763D02*
X117216000Y-119453477D01*
X117216000Y-119453477D02*
X117180285Y-119489192D01*
X117180285Y-119489192D02*
X117144571Y-119560620D01*
X117144571Y-119560620D02*
X117108857Y-119703477D01*
X117108857Y-119703477D02*
X117073142Y-119774906D01*
X117073142Y-119774906D02*
X117037428Y-119810620D01*
X117037428Y-119810620D02*
X116966000Y-119846334D01*
X116966000Y-119846334D02*
X116894571Y-119846334D01*
X116894571Y-119846334D02*
X116823142Y-119810620D01*
X116823142Y-119810620D02*
X116787428Y-119774906D01*
X116787428Y-119774906D02*
X116751714Y-119703477D01*
X116751714Y-119703477D02*
X116751714Y-119524906D01*
X116751714Y-119524906D02*
X116787428Y-119417763D01*
X117501714Y-119096334D02*
X116751714Y-119096334D01*
X116751714Y-119096334D02*
X116751714Y-118810620D01*
X116751714Y-118810620D02*
X116787428Y-118739191D01*
X116787428Y-118739191D02*
X116823142Y-118703477D01*
X116823142Y-118703477D02*
X116894571Y-118667763D01*
X116894571Y-118667763D02*
X117001714Y-118667763D01*
X117001714Y-118667763D02*
X117073142Y-118703477D01*
X117073142Y-118703477D02*
X117108857Y-118739191D01*
X117108857Y-118739191D02*
X117144571Y-118810620D01*
X117144571Y-118810620D02*
X117144571Y-119096334D01*
X117108857Y-118346334D02*
X117108857Y-118096334D01*
X117501714Y-117989191D02*
X117501714Y-118346334D01*
X117501714Y-118346334D02*
X116751714Y-118346334D01*
X116751714Y-118346334D02*
X116751714Y-117989191D01*
X117287428Y-117703477D02*
X117287428Y-117346335D01*
X117501714Y-117774906D02*
X116751714Y-117524906D01*
X116751714Y-117524906D02*
X117501714Y-117274906D01*
X117501714Y-117024906D02*
X116751714Y-117024906D01*
X117501714Y-116596335D02*
X117073142Y-116917763D01*
X116751714Y-116596335D02*
X117180285Y-117024906D01*
X117108857Y-116274906D02*
X117108857Y-116024906D01*
X117501714Y-115917763D02*
X117501714Y-116274906D01*
X117501714Y-116274906D02*
X116751714Y-116274906D01*
X116751714Y-116274906D02*
X116751714Y-115917763D01*
X117501714Y-115167764D02*
X117144571Y-115417764D01*
X117501714Y-115596335D02*
X116751714Y-115596335D01*
X116751714Y-115596335D02*
X116751714Y-115310621D01*
X116751714Y-115310621D02*
X116787428Y-115239192D01*
X116787428Y-115239192D02*
X116823142Y-115203478D01*
X116823142Y-115203478D02*
X116894571Y-115167764D01*
X116894571Y-115167764D02*
X117001714Y-115167764D01*
X117001714Y-115167764D02*
X117073142Y-115203478D01*
X117073142Y-115203478D02*
X117108857Y-115239192D01*
X117108857Y-115239192D02*
X117144571Y-115310621D01*
X117144571Y-115310621D02*
X117144571Y-115596335D01*
X109760807Y-118516000D02*
X110332236Y-118516000D01*
D10*
X120046429Y-127979819D02*
X120046429Y-126979819D01*
X121094047Y-127884580D02*
X121046428Y-127932200D01*
X121046428Y-127932200D02*
X120903571Y-127979819D01*
X120903571Y-127979819D02*
X120808333Y-127979819D01*
X120808333Y-127979819D02*
X120665476Y-127932200D01*
X120665476Y-127932200D02*
X120570238Y-127836961D01*
X120570238Y-127836961D02*
X120522619Y-127741723D01*
X120522619Y-127741723D02*
X120475000Y-127551247D01*
X120475000Y-127551247D02*
X120475000Y-127408390D01*
X120475000Y-127408390D02*
X120522619Y-127217914D01*
X120522619Y-127217914D02*
X120570238Y-127122676D01*
X120570238Y-127122676D02*
X120665476Y-127027438D01*
X120665476Y-127027438D02*
X120808333Y-126979819D01*
X120808333Y-126979819D02*
X120903571Y-126979819D01*
X120903571Y-126979819D02*
X121046428Y-127027438D01*
X121046428Y-127027438D02*
X121094047Y-127075057D01*
X121427381Y-126979819D02*
X122046428Y-126979819D01*
X122046428Y-126979819D02*
X121713095Y-127360771D01*
X121713095Y-127360771D02*
X121855952Y-127360771D01*
X121855952Y-127360771D02*
X121951190Y-127408390D01*
X121951190Y-127408390D02*
X121998809Y-127456009D01*
X121998809Y-127456009D02*
X122046428Y-127551247D01*
X122046428Y-127551247D02*
X122046428Y-127789342D01*
X122046428Y-127789342D02*
X121998809Y-127884580D01*
X121998809Y-127884580D02*
X121951190Y-127932200D01*
X121951190Y-127932200D02*
X121855952Y-127979819D01*
X121855952Y-127979819D02*
X121570238Y-127979819D01*
X121570238Y-127979819D02*
X121475000Y-127932200D01*
X121475000Y-127932200D02*
X121427381Y-127884580D01*
X122665476Y-126979819D02*
X122760714Y-126979819D01*
X122760714Y-126979819D02*
X122855952Y-127027438D01*
X122855952Y-127027438D02*
X122903571Y-127075057D01*
X122903571Y-127075057D02*
X122951190Y-127170295D01*
X122951190Y-127170295D02*
X122998809Y-127360771D01*
X122998809Y-127360771D02*
X122998809Y-127598866D01*
X122998809Y-127598866D02*
X122951190Y-127789342D01*
X122951190Y-127789342D02*
X122903571Y-127884580D01*
X122903571Y-127884580D02*
X122855952Y-127932200D01*
X122855952Y-127932200D02*
X122760714Y-127979819D01*
X122760714Y-127979819D02*
X122665476Y-127979819D01*
X122665476Y-127979819D02*
X122570238Y-127932200D01*
X122570238Y-127932200D02*
X122522619Y-127884580D01*
X122522619Y-127884580D02*
X122475000Y-127789342D01*
X122475000Y-127789342D02*
X122427381Y-127598866D01*
X122427381Y-127598866D02*
X122427381Y-127360771D01*
X122427381Y-127360771D02*
X122475000Y-127170295D01*
X122475000Y-127170295D02*
X122522619Y-127075057D01*
X122522619Y-127075057D02*
X122570238Y-127027438D01*
X122570238Y-127027438D02*
X122665476Y-126979819D01*
X123379762Y-127075057D02*
X123427381Y-127027438D01*
X123427381Y-127027438D02*
X123522619Y-126979819D01*
X123522619Y-126979819D02*
X123760714Y-126979819D01*
X123760714Y-126979819D02*
X123855952Y-127027438D01*
X123855952Y-127027438D02*
X123903571Y-127075057D01*
X123903571Y-127075057D02*
X123951190Y-127170295D01*
X123951190Y-127170295D02*
X123951190Y-127265533D01*
X123951190Y-127265533D02*
X123903571Y-127408390D01*
X123903571Y-127408390D02*
X123332143Y-127979819D01*
X123332143Y-127979819D02*
X123951190Y-127979819D01*
X120046429Y-119164819D02*
X120046429Y-118164819D01*
X121094047Y-119069580D02*
X121046428Y-119117200D01*
X121046428Y-119117200D02*
X120903571Y-119164819D01*
X120903571Y-119164819D02*
X120808333Y-119164819D01*
X120808333Y-119164819D02*
X120665476Y-119117200D01*
X120665476Y-119117200D02*
X120570238Y-119021961D01*
X120570238Y-119021961D02*
X120522619Y-118926723D01*
X120522619Y-118926723D02*
X120475000Y-118736247D01*
X120475000Y-118736247D02*
X120475000Y-118593390D01*
X120475000Y-118593390D02*
X120522619Y-118402914D01*
X120522619Y-118402914D02*
X120570238Y-118307676D01*
X120570238Y-118307676D02*
X120665476Y-118212438D01*
X120665476Y-118212438D02*
X120808333Y-118164819D01*
X120808333Y-118164819D02*
X120903571Y-118164819D01*
X120903571Y-118164819D02*
X121046428Y-118212438D01*
X121046428Y-118212438D02*
X121094047Y-118260057D01*
X121427381Y-118164819D02*
X122046428Y-118164819D01*
X122046428Y-118164819D02*
X121713095Y-118545771D01*
X121713095Y-118545771D02*
X121855952Y-118545771D01*
X121855952Y-118545771D02*
X121951190Y-118593390D01*
X121951190Y-118593390D02*
X121998809Y-118641009D01*
X121998809Y-118641009D02*
X122046428Y-118736247D01*
X122046428Y-118736247D02*
X122046428Y-118974342D01*
X122046428Y-118974342D02*
X121998809Y-119069580D01*
X121998809Y-119069580D02*
X121951190Y-119117200D01*
X121951190Y-119117200D02*
X121855952Y-119164819D01*
X121855952Y-119164819D02*
X121570238Y-119164819D01*
X121570238Y-119164819D02*
X121475000Y-119117200D01*
X121475000Y-119117200D02*
X121427381Y-119069580D01*
X122665476Y-118164819D02*
X122760714Y-118164819D01*
X122760714Y-118164819D02*
X122855952Y-118212438D01*
X122855952Y-118212438D02*
X122903571Y-118260057D01*
X122903571Y-118260057D02*
X122951190Y-118355295D01*
X122951190Y-118355295D02*
X122998809Y-118545771D01*
X122998809Y-118545771D02*
X122998809Y-118783866D01*
X122998809Y-118783866D02*
X122951190Y-118974342D01*
X122951190Y-118974342D02*
X122903571Y-119069580D01*
X122903571Y-119069580D02*
X122855952Y-119117200D01*
X122855952Y-119117200D02*
X122760714Y-119164819D01*
X122760714Y-119164819D02*
X122665476Y-119164819D01*
X122665476Y-119164819D02*
X122570238Y-119117200D01*
X122570238Y-119117200D02*
X122522619Y-119069580D01*
X122522619Y-119069580D02*
X122475000Y-118974342D01*
X122475000Y-118974342D02*
X122427381Y-118783866D01*
X122427381Y-118783866D02*
X122427381Y-118545771D01*
X122427381Y-118545771D02*
X122475000Y-118355295D01*
X122475000Y-118355295D02*
X122522619Y-118260057D01*
X122522619Y-118260057D02*
X122570238Y-118212438D01*
X122570238Y-118212438D02*
X122665476Y-118164819D01*
X123951190Y-119164819D02*
X123379762Y-119164819D01*
X123665476Y-119164819D02*
X123665476Y-118164819D01*
X123665476Y-118164819D02*
X123570238Y-118307676D01*
X123570238Y-118307676D02*
X123475000Y-118402914D01*
X123475000Y-118402914D02*
X123379762Y-118450533D01*
D13*
X134825000Y-95710000D02*
X136025000Y-95710000D01*
X136375000Y-95795000D02*
X136575000Y-95795000D01*
X136375000Y-98695000D02*
X136375000Y-95795000D01*
X136575000Y-95795000D02*
X136575000Y-98695000D01*
X136575000Y-98695000D02*
X136375000Y-98695000D01*
D14*
X108740000Y-121025000D02*
X116360000Y-121025000D01*
X116360000Y-121025000D02*
X116360000Y-110865000D01*
X108740000Y-110865000D02*
X108740000Y-121025000D01*
X115090000Y-110865000D02*
X115090000Y-121025000D01*
X116360000Y-110865000D02*
X108740000Y-110865000D01*
X108740000Y-132150000D02*
X116360000Y-132150000D01*
X116360000Y-132150000D02*
X116360000Y-121990000D01*
X108740000Y-121990000D02*
X108740000Y-132150000D01*
X115090000Y-121990000D02*
X115090000Y-132150000D01*
X116360000Y-121990000D02*
X108740000Y-121990000D01*
X137521359Y-105565000D02*
X137828641Y-105565000D01*
X137521359Y-106325000D02*
X137828641Y-106325000D01*
X145896359Y-108965000D02*
X146203641Y-108965000D01*
X145896359Y-109725000D02*
X146203641Y-109725000D01*
X141170000Y-113758641D02*
X141170000Y-113451359D01*
X141930000Y-113758641D02*
X141930000Y-113451359D01*
X113246359Y-106620000D02*
X113553641Y-106620000D01*
X113246359Y-107380000D02*
X113553641Y-107380000D01*
X126935000Y-111679420D02*
X126935000Y-111960580D01*
X125915000Y-111679420D02*
X125915000Y-111960580D01*
X140062836Y-115480000D02*
X139847164Y-115480000D01*
X140062836Y-114760000D02*
X139847164Y-114760000D01*
X137078641Y-103225000D02*
X136771359Y-103225000D01*
X137078641Y-102465000D02*
X136771359Y-102465000D01*
X120590000Y-112792836D02*
X120590000Y-112577164D01*
X121310000Y-112792836D02*
X121310000Y-112577164D01*
X139571359Y-105565000D02*
X139878641Y-105565000D01*
X139571359Y-106325000D02*
X139878641Y-106325000D01*
X146092164Y-115740000D02*
X146307836Y-115740000D01*
X146092164Y-116460000D02*
X146307836Y-116460000D01*
X111800000Y-96375000D02*
X113500000Y-96375000D01*
X111800000Y-105715000D02*
X113500000Y-105715000D01*
X134845000Y-94408641D02*
X134845000Y-94101359D01*
X135605000Y-94408641D02*
X135605000Y-94101359D01*
X126935000Y-121654420D02*
X126935000Y-121935580D01*
X125915000Y-121654420D02*
X125915000Y-121935580D01*
X150748248Y-116949975D02*
X150965529Y-116732694D01*
X151285649Y-117487376D02*
X151502930Y-117270095D01*
X141605000Y-104925000D02*
X140600000Y-104925000D01*
X141575000Y-101935000D02*
X141575000Y-101705000D01*
X141575000Y-101705000D02*
X140600000Y-101705000D01*
X139330000Y-104925000D02*
X138355000Y-104925000D01*
X139330000Y-101705000D02*
X138355000Y-101705000D01*
X138355000Y-104925000D02*
X138355000Y-104695000D01*
X138355000Y-101935000D02*
X138355000Y-101705000D01*
X156781529Y-117131924D02*
X154448076Y-114798471D01*
X154448076Y-114798471D02*
X151619649Y-117626898D01*
X139315000Y-116187500D02*
X139790000Y-116187500D01*
X144535000Y-116662500D02*
X144535000Y-116187500D01*
X139315000Y-116662500D02*
X139315000Y-116187500D01*
X144535000Y-120932500D02*
X144535000Y-121407500D01*
X139315000Y-120932500D02*
X139315000Y-121407500D01*
X144535000Y-121407500D02*
X144060000Y-121407500D01*
X139315000Y-121407500D02*
X139790000Y-121407500D01*
X124395000Y-123046359D02*
X124395000Y-123353641D01*
X125155000Y-123046359D02*
X125155000Y-123353641D01*
X128191359Y-90765000D02*
X128498641Y-90765000D01*
X128191359Y-91525000D02*
X128498641Y-91525000D01*
X136084420Y-99385000D02*
X136365580Y-99385000D01*
X136084420Y-100405000D02*
X136365580Y-100405000D01*
X130980000Y-127340000D02*
X130980000Y-125260000D01*
X132250000Y-123580000D02*
X131760000Y-124070000D01*
X132250000Y-123580000D02*
X135150000Y-123580000D01*
X132250000Y-129020000D02*
X131760000Y-128530000D01*
X132250000Y-129020000D02*
X135150000Y-129020000D01*
X135150000Y-123580000D02*
X135640000Y-124070000D01*
X135150000Y-129020000D02*
X135640000Y-128530000D01*
X136420000Y-127340000D02*
X136420000Y-125260000D01*
X142184420Y-105685000D02*
X142465580Y-105685000D01*
X142184420Y-106705000D02*
X142465580Y-106705000D01*
X143859420Y-110235000D02*
X144140580Y-110235000D01*
X143859420Y-111255000D02*
X144140580Y-111255000D01*
X136153641Y-120680000D02*
X135846359Y-120680000D01*
X136153641Y-119920000D02*
X135846359Y-119920000D01*
X131335000Y-107758748D02*
X131335000Y-108281252D01*
X129115000Y-107758748D02*
X129115000Y-108281252D01*
X129646359Y-120820000D02*
X129953641Y-120820000D01*
X129646359Y-121580000D02*
X129953641Y-121580000D01*
X141900000Y-123320000D02*
X141900000Y-123580000D01*
X141900000Y-128770000D02*
X141900000Y-128510000D01*
X144625000Y-123320000D02*
X141900000Y-123320000D01*
X144625000Y-123320000D02*
X147350000Y-123320000D01*
X144625000Y-128770000D02*
X141900000Y-128770000D01*
X144625000Y-128770000D02*
X147350000Y-128770000D01*
X147350000Y-123320000D02*
X147350000Y-123580000D01*
X147350000Y-128510000D02*
X149025000Y-128510000D01*
X147350000Y-128770000D02*
X147350000Y-128510000D01*
X141182836Y-112405000D02*
X140967164Y-112405000D01*
X141182836Y-111685000D02*
X140967164Y-111685000D01*
X139984420Y-95735000D02*
X140265580Y-95735000D01*
X139984420Y-96755000D02*
X140265580Y-96755000D01*
X147930802Y-114221685D02*
X148083305Y-114374188D01*
X147421685Y-114730802D02*
X147574188Y-114883305D01*
X135627836Y-118660000D02*
X135412164Y-118660000D01*
X135627836Y-117940000D02*
X135412164Y-117940000D01*
X120590000Y-121607836D02*
X120590000Y-121392164D01*
X121310000Y-121607836D02*
X121310000Y-121392164D01*
D13*
X135025000Y-106170000D02*
X135025000Y-107070000D01*
X134975000Y-107420000D02*
X134975000Y-108620000D01*
X132075000Y-107420000D02*
X134975000Y-107420000D01*
X134975000Y-108620000D02*
X132075000Y-108620000D01*
X132075000Y-108620000D02*
X132075000Y-107420000D01*
D14*
X137032836Y-104305000D02*
X136817164Y-104305000D01*
X137032836Y-103585000D02*
X136817164Y-103585000D01*
X152269779Y-115501104D02*
X152422282Y-115348601D01*
X152778896Y-116010221D02*
X152931399Y-115857718D01*
X147285000Y-110010000D02*
X145815000Y-110010000D01*
X145815000Y-110010000D02*
X145815000Y-112295000D01*
X147285000Y-112295000D02*
X147285000Y-110010000D01*
X148842164Y-108990000D02*
X149057836Y-108990000D01*
X148842164Y-109710000D02*
X149057836Y-109710000D01*
X133940582Y-90856452D02*
X134247864Y-90856452D01*
X133940582Y-91616452D02*
X134247864Y-91616452D01*
X140715580Y-101005000D02*
X140434420Y-101005000D01*
X140715580Y-99985000D02*
X140434420Y-99985000D01*
X130915000Y-120165000D02*
X130915000Y-121635000D01*
X130915000Y-121635000D02*
X133200000Y-121635000D01*
X133200000Y-120165000D02*
X130915000Y-120165000D01*
X140915580Y-111255000D02*
X140634420Y-111255000D01*
X140915580Y-110235000D02*
X140634420Y-110235000D01*
X142184420Y-107335000D02*
X142465580Y-107335000D01*
X142184420Y-108355000D02*
X142465580Y-108355000D01*
X133209420Y-110535000D02*
X133490580Y-110535000D01*
X133209420Y-111555000D02*
X133490580Y-111555000D01*
X146092164Y-116885000D02*
X146307836Y-116885000D01*
X146092164Y-117605000D02*
X146307836Y-117605000D01*
X152878307Y-119469190D02*
X153030810Y-119621693D01*
X152369190Y-119978307D02*
X152521693Y-120130810D01*
X130975000Y-104055000D02*
X134275000Y-104055000D01*
X130975000Y-104055000D02*
X130975000Y-98545000D01*
X134275000Y-104055000D02*
X134275000Y-98545000D01*
X132940580Y-96636632D02*
X132659420Y-96636632D01*
X132940580Y-95616632D02*
X132659420Y-95616632D01*
X133034420Y-104485000D02*
X133315580Y-104485000D01*
X133034420Y-105505000D02*
X133315580Y-105505000D01*
X122400000Y-103110000D02*
X123200000Y-103110000D01*
X122400000Y-103110000D02*
X121600000Y-103110000D01*
X122400000Y-99990000D02*
X123200000Y-99990000D01*
X122400000Y-99990000D02*
X120600000Y-99990000D01*
X121689999Y-121607836D02*
X121689999Y-121392164D01*
X122409999Y-121607836D02*
X122409999Y-121392164D01*
X135595000Y-109348641D02*
X135595000Y-109041359D01*
X136355000Y-109348641D02*
X136355000Y-109041359D01*
X142665000Y-103694622D02*
X142665000Y-102895378D01*
X143785000Y-103694622D02*
X143785000Y-102895378D01*
X113046359Y-94620000D02*
X113353641Y-94620000D01*
X113046359Y-95380000D02*
X113353641Y-95380000D01*
X149810000Y-103445700D02*
X159550000Y-103445700D01*
X149810000Y-103445700D02*
X149810000Y-91024700D01*
X159550000Y-103445700D02*
X159555000Y-91024700D01*
X127825000Y-93280000D02*
X130110000Y-93280000D01*
X130110000Y-91810000D02*
X127825000Y-91810000D01*
X130110000Y-93280000D02*
X130110000Y-91810000D01*
X139735000Y-128337164D02*
X139735000Y-128552836D01*
X139015000Y-128337164D02*
X139015000Y-128552836D01*
X150425812Y-111793472D02*
X150578315Y-111945975D01*
X149916695Y-112302589D02*
X150069198Y-112455092D01*
X123585000Y-123115000D02*
X123585000Y-123590000D01*
X123110000Y-126335000D02*
X123585000Y-126335000D01*
X123110000Y-123115000D02*
X123585000Y-123115000D01*
X120840000Y-126335000D02*
X120365000Y-126335000D01*
X120840000Y-123115000D02*
X120365000Y-123115000D01*
X120365000Y-126335000D02*
X120365000Y-125860000D01*
X120365000Y-123115000D02*
X120365000Y-123590000D01*
X134920000Y-103953641D02*
X134920000Y-103646359D01*
X135680000Y-103953641D02*
X135680000Y-103646359D01*
X132462500Y-95105000D02*
X133262500Y-95105000D01*
X132462500Y-95105000D02*
X131662500Y-95105000D01*
X132462500Y-91985000D02*
X133262500Y-91985000D01*
X132462500Y-91985000D02*
X130662500Y-91985000D01*
X140805000Y-113441359D02*
X140805000Y-113748641D01*
X140045000Y-113441359D02*
X140045000Y-113748641D01*
X139607836Y-122755000D02*
X139392164Y-122755000D01*
X139607836Y-122035000D02*
X139392164Y-122035000D01*
X143465000Y-113702836D02*
X143465000Y-113487164D01*
X144185000Y-113702836D02*
X144185000Y-113487164D01*
X123585000Y-114300000D02*
X123585000Y-114775000D01*
X123110000Y-117520000D02*
X123585000Y-117520000D01*
X123110000Y-114300000D02*
X123585000Y-114300000D01*
X120840000Y-117520000D02*
X120365000Y-117520000D01*
X120840000Y-114300000D02*
X120365000Y-114300000D01*
X120365000Y-117520000D02*
X120365000Y-117045000D01*
X120365000Y-114300000D02*
X120365000Y-114775000D01*
X137940000Y-115702836D02*
X137940000Y-115487164D01*
X138660000Y-115702836D02*
X138660000Y-115487164D01*
X121665000Y-112787836D02*
X121665000Y-112572164D01*
X122385000Y-112787836D02*
X122385000Y-112572164D01*
X167600000Y-116740000D02*
X159400000Y-116740000D01*
X163500000Y-109040000D02*
X164000000Y-108540000D01*
X159400000Y-108540000D02*
X159400000Y-116740000D01*
X163000000Y-108540000D02*
X163500000Y-109040000D01*
X167600000Y-108540000D02*
X167600000Y-116740000D01*
X167600000Y-108540000D02*
X159400000Y-108540000D01*
%LPC*%
D15*
X135425000Y-96285000D03*
X135425000Y-98205000D03*
X137525000Y-97245000D03*
D16*
X112550000Y-118485000D03*
D17*
X112550000Y-113405000D03*
D16*
X112550000Y-129610000D03*
D17*
X112550000Y-124530000D03*
D18*
X137165000Y-105945000D03*
X138185000Y-105945000D03*
X145540000Y-109345000D03*
X146560000Y-109345000D03*
D19*
X141550000Y-114115000D03*
X141550000Y-113095000D03*
D18*
X112890000Y-107000000D03*
X113910000Y-107000000D03*
D20*
X126425000Y-111045000D03*
X126425000Y-112595000D03*
D21*
X140435000Y-115120000D03*
X139475000Y-115120000D03*
D22*
X137435000Y-102845000D03*
X136415000Y-102845000D03*
D23*
X120950000Y-113165000D03*
X120950000Y-112205000D03*
D18*
X139215000Y-105945000D03*
X140235000Y-105945000D03*
D24*
X145720000Y-116100000D03*
X146680000Y-116100000D03*
D25*
X114305000Y-98155000D03*
X114305000Y-103935000D03*
D26*
X115380000Y-97845000D03*
X115380000Y-98645000D03*
D27*
X115380000Y-99795000D03*
X115380000Y-100795000D03*
X115380000Y-101295000D03*
X115380000Y-102295000D03*
D26*
X115380000Y-103445000D03*
X115380000Y-104245000D03*
X115380000Y-104245000D03*
X115380000Y-103445000D03*
D27*
X115380000Y-102795000D03*
X115380000Y-101795000D03*
X115380000Y-100295000D03*
X115380000Y-99295000D03*
D26*
X115380000Y-98645000D03*
X115380000Y-97845000D03*
D28*
X114805000Y-96725000D03*
D29*
X110625000Y-96725000D03*
D28*
X114805000Y-105365000D03*
D29*
X110625000Y-105365000D03*
D19*
X135225000Y-94765000D03*
X135225000Y-93745000D03*
D20*
X126425000Y-121020000D03*
X126425000Y-122570000D03*
D30*
X150764965Y-117470659D03*
X151486213Y-116749411D03*
D31*
X141365000Y-104315000D03*
X141365000Y-103815000D03*
X141365000Y-103315000D03*
X141365000Y-102815000D03*
X141365000Y-102315000D03*
X138565000Y-102315000D03*
X138565000Y-102815000D03*
X138565000Y-103315000D03*
X138565000Y-103815000D03*
X138565000Y-104315000D03*
D32*
X139965000Y-103315000D03*
D33*
X154377366Y-116000553D03*
X152821731Y-117556188D03*
X154023812Y-118758269D03*
X155579447Y-117202634D03*
D34*
X143675000Y-116360000D03*
X143175000Y-116360000D03*
X142675000Y-116360000D03*
X142175000Y-116360000D03*
X141675000Y-116360000D03*
X141175000Y-116360000D03*
X140675000Y-116360000D03*
X140175000Y-116360000D03*
D35*
X139487500Y-117047500D03*
X139487500Y-117547500D03*
X139487500Y-118047500D03*
X139487500Y-118547500D03*
X139487500Y-119047500D03*
X139487500Y-119547500D03*
X139487500Y-120047500D03*
X139487500Y-120547500D03*
D34*
X140175000Y-121235000D03*
X140675000Y-121235000D03*
X141175000Y-121235000D03*
X141675000Y-121235000D03*
X142175000Y-121235000D03*
X142675000Y-121235000D03*
X143175000Y-121235000D03*
X143675000Y-121235000D03*
D35*
X144362500Y-120547500D03*
X144362500Y-120047500D03*
X144362500Y-119547500D03*
X144362500Y-119047500D03*
X144362500Y-118547500D03*
X144362500Y-118047500D03*
X144362500Y-117547500D03*
X144362500Y-117047500D03*
D36*
X141925000Y-118797500D03*
D37*
X124775000Y-123710000D03*
X124775000Y-122690000D03*
D18*
X127835000Y-91145000D03*
X128855000Y-91145000D03*
D38*
X135450000Y-99895000D03*
X137000000Y-99895000D03*
D39*
X130600000Y-124450000D03*
X136800000Y-124450000D03*
X130600000Y-128150000D03*
X136800000Y-128150000D03*
D38*
X141550000Y-106195000D03*
X143100000Y-106195000D03*
X143225000Y-110745000D03*
X144775000Y-110745000D03*
D22*
X136510000Y-120300000D03*
X135490000Y-120300000D03*
D40*
X130225000Y-106945000D03*
X130225000Y-109095000D03*
D18*
X129290000Y-121200000D03*
X130310000Y-121200000D03*
D41*
X141025000Y-127950000D03*
X141025000Y-126680000D03*
X141025000Y-125410000D03*
X141025000Y-124140000D03*
X148225000Y-124140000D03*
X148225000Y-125410000D03*
X148225000Y-126680000D03*
X148225000Y-127950000D03*
D42*
X142675000Y-113110000D03*
X142675000Y-114080000D03*
D21*
X141555000Y-112045000D03*
X140595000Y-112045000D03*
D38*
X139350000Y-96245000D03*
X140900000Y-96245000D03*
D43*
X147413084Y-114213084D03*
X148091906Y-114891906D03*
D21*
X136000000Y-118300000D03*
X135040000Y-118300000D03*
D23*
X120950000Y-121980000D03*
X120950000Y-121020000D03*
D44*
X134475000Y-106620000D03*
X133525000Y-106620000D03*
X132575000Y-106620000D03*
X132575000Y-109420000D03*
X134475000Y-109420000D03*
D45*
X139350000Y-93500000D03*
D46*
X143950000Y-93500000D03*
D21*
X137405000Y-103945000D03*
X136445000Y-103945000D03*
D47*
X152261178Y-116018822D03*
X152940000Y-115340000D03*
D48*
X146550000Y-110707500D03*
X146550000Y-112282500D03*
D24*
X148470000Y-109350000D03*
X149430000Y-109350000D03*
D18*
X133584223Y-91236452D03*
X134604223Y-91236452D03*
D49*
X141350000Y-100495000D03*
X139800000Y-100495000D03*
D50*
X131612500Y-120900000D03*
X133187500Y-120900000D03*
D49*
X141550000Y-110745000D03*
X140000000Y-110745000D03*
D38*
X141550000Y-107845000D03*
X143100000Y-107845000D03*
X132575000Y-111045000D03*
X134125000Y-111045000D03*
D24*
X145720000Y-117245000D03*
X146680000Y-117245000D03*
D43*
X152360589Y-119460589D03*
X153039411Y-120139411D03*
D51*
X132625000Y-102545000D03*
X132625000Y-98545000D03*
D49*
X133575000Y-96126632D03*
X132025000Y-96126632D03*
D38*
X132400000Y-104995000D03*
X133950000Y-104995000D03*
D52*
X123537500Y-100600000D03*
X123537500Y-101550000D03*
X123537500Y-102500000D03*
X121262500Y-102500000D03*
X121262500Y-101550000D03*
X121262500Y-100600000D03*
D23*
X122049999Y-121980000D03*
X122049999Y-121020000D03*
D19*
X135975000Y-109705000D03*
X135975000Y-108685000D03*
D53*
X143225000Y-104357500D03*
X143225000Y-102232500D03*
D18*
X112690000Y-95000000D03*
X113710000Y-95000000D03*
D54*
X152180000Y-101274700D03*
X157180000Y-101274700D03*
X152180000Y-95024700D03*
X154680000Y-95024700D03*
D55*
X157180000Y-95024700D03*
D56*
X127837500Y-92545000D03*
X129412500Y-92545000D03*
D57*
X139375000Y-127965000D03*
X139375000Y-128925000D03*
D43*
X149908094Y-111784871D03*
X150586916Y-112463693D03*
D58*
X123412500Y-125475000D03*
X123412500Y-124975000D03*
X123412500Y-124475000D03*
X123412500Y-123975000D03*
D59*
X122725000Y-123287500D03*
X122225000Y-123287500D03*
X121725000Y-123287500D03*
X121225000Y-123287500D03*
D58*
X120537500Y-123975000D03*
X120537500Y-124475000D03*
X120537500Y-124975000D03*
X120537500Y-125475000D03*
D59*
X121225000Y-126162500D03*
X121725000Y-126162500D03*
X122225000Y-126162500D03*
X122725000Y-126162500D03*
D60*
X121975000Y-124725000D03*
D19*
X135300000Y-104310000D03*
X135300000Y-103290000D03*
D52*
X133600000Y-92595000D03*
X133600000Y-94495000D03*
X131325000Y-94495000D03*
X131325000Y-93545000D03*
X131325000Y-92595000D03*
D37*
X140425000Y-113085000D03*
X140425000Y-114105000D03*
D21*
X139980000Y-122395000D03*
X139020000Y-122395000D03*
D23*
X143825000Y-114075000D03*
X143825000Y-113115000D03*
D58*
X123412500Y-116660000D03*
X123412500Y-116160000D03*
X123412500Y-115660000D03*
X123412500Y-115160000D03*
D59*
X122725000Y-114472500D03*
X122225000Y-114472500D03*
X121725000Y-114472500D03*
X121225000Y-114472500D03*
D58*
X120537500Y-115160000D03*
X120537500Y-115660000D03*
X120537500Y-116160000D03*
X120537500Y-116660000D03*
D59*
X121225000Y-117347500D03*
X121725000Y-117347500D03*
X122225000Y-117347500D03*
X122725000Y-117347500D03*
D60*
X121975000Y-115910000D03*
D23*
X138300000Y-116075000D03*
X138300000Y-115115000D03*
X122025000Y-113160000D03*
X122025000Y-112200000D03*
D61*
X160960000Y-115180000D03*
X166040000Y-115180000D03*
X160960000Y-110100000D03*
X166040000Y-110100000D03*
D62*
X163500000Y-112640000D03*
D63*
X148365147Y-113327818D03*
X149051041Y-112641924D03*
%LPD*%
M02*
